<svg width="24" height="24" viewBox="0 0 24 24" fill="none" xmlns="http://www.w3.org/2000/svg">
<path d="M16 5.29957V18.6391C16.0001 18.9081 15.9202 19.1711 15.7705 19.3944C15.6209 19.6177 15.4084 19.7912 15.16 19.8928C14.9143 19.9981 14.6425 20.0267 14.3803 19.9748C14.1181 19.9229 13.8776 19.793 13.69 19.602L7.69005 13.5841C7.47044 13.3771 7.2958 13.1268 7.17707 12.8489C7.05834 12.5711 6.99808 12.2716 7.00005 11.9693C7.00038 11.3867 7.23044 10.8279 7.64005 10.4147L13.71 4.39689C13.896 4.20674 14.1348 4.07726 14.3953 4.02537C14.6557 3.97348 14.9258 4.00159 15.17 4.10603C15.408 4.20407 15.6129 4.36874 15.76 4.58039C15.9072 4.79204 15.9905 5.0417 16 5.29957Z" fill="#191B1F"/>
</svg>
