<svg width="24" height="24" viewBox="0 0 24 24" fill="none" xmlns="http://www.w3.org/2000/svg">
<path d="M7.99995 18.7004L7.99995 5.36088C7.99995 5.09185 8.07984 4.82892 8.22945 4.60563C8.37906 4.38233 8.5916 4.2088 8.83995 4.10717C9.08575 4.0019 9.35747 3.97334 9.61968 4.02522C9.88189 4.07711 10.1224 4.20702 10.31 4.39803L16.31 10.4159C16.5296 10.6229 16.7042 10.8732 16.8229 11.1511C16.9417 11.4289 17.0019 11.7284 17 12.0307C16.9996 12.6133 16.7696 13.1721 16.36 13.5853L10.29 19.6031C10.104 19.7933 9.8652 19.9227 9.60473 19.9746C9.34426 20.0265 9.07424 19.9984 8.82995 19.894C8.59197 19.7959 8.38715 19.6313 8.23997 19.4196C8.09278 19.208 8.00946 18.9583 7.99995 18.7004Z" fill="#191B1F"/>
</svg>
