<svg width="24" height="24" viewBox="0 0 24 24" fill="none" xmlns="http://www.w3.org/2000/svg">
<path d="M19.6035 10.3217L13.6082 16.3521C13.1943 16.767 12.6337 17 12.0494 17C11.4651 17 10.9045 16.767 10.4906 16.3521L4.39541 10.3016C4.20597 10.1147 4.07697 9.8747 4.02527 9.61291C3.97358 9.35112 4.00158 9.07974 4.10564 8.83421C4.20668 8.58727 4.37841 8.37612 4.59903 8.22758C4.81965 8.07905 5.07918 7.99983 5.34466 8H18.6442C18.9122 7.99999 19.1742 8.08029 19.3966 8.23066C19.6191 8.38103 19.792 8.59465 19.8932 8.84426C19.9981 9.0913 20.0266 9.36439 19.9749 9.62794C19.9232 9.89148 19.7938 10.1332 19.6035 10.3217Z" fill="#191B1F"/>
</svg>
