<svg width="24" height="24" viewBox="0 0 24 24" fill="none" xmlns="http://www.w3.org/2000/svg">
<path d="M4.39654 14.6783L10.3918 8.64786C10.8057 8.23296 11.3663 8 11.9506 8C12.5349 8 13.0955 8.23296 13.5094 8.64786L19.6046 14.6984C19.794 14.8853 19.923 15.1253 19.9747 15.3871C20.0264 15.6489 19.9984 15.9203 19.8944 16.1658C19.7933 16.4127 19.6216 16.6239 19.401 16.7724C19.1804 16.921 18.9208 17.0002 18.6553 17L5.35579 17C5.08776 17 4.82582 16.9197 4.60336 16.7693C4.3809 16.619 4.20802 16.4054 4.10677 16.1557C4.00189 15.9087 3.97344 15.6356 4.02513 15.3721C4.07682 15.1085 4.20625 14.8668 4.39654 14.6783Z" fill="#191B1F"/>
</svg>
