<svg width="24" height="24" viewBox="0 0 24 24" fill="none" xmlns="http://www.w3.org/2000/svg">
<path d="M6.15146 17.27L4.35035 14.88C4.09601 14.5372 3.97339 14.1144 4.00484 13.6888C4.03628 13.2632 4.21971 12.863 4.52167 12.5612C4.82364 12.2594 5.22406 12.0761 5.64994 12.0447C6.07583 12.0133 6.49884 12.1358 6.84189 12.39L8.99322 14V5C8.99322 4.46957 9.20406 3.96086 9.57936 3.58578C9.95467 3.21071 10.4637 3 10.9944 3C11.5252 3 12.0342 3.21071 12.4095 3.58578C12.7848 3.96086 12.9957 4.46957 12.9957 5V9H15.9975C17.0591 9 18.0771 9.42142 18.8277 10.1716C19.5783 10.9217 20 11.9391 20 13V14.34C20 16.071 19.4382 17.7552 18.399 19.14L18.1989 19.4C17.8261 19.8968 17.3426 20.3 16.7869 20.5777C16.2311 20.8554 15.6183 21 14.9969 21H11.9951C11.0664 21.0008 10.1502 20.7862 9.31854 20.3733C8.48687 19.9603 7.76241 19.3602 7.20211 18.62L6.15146 17.27Z" stroke="#191B1F" stroke-width="1.5" stroke-linecap="round" stroke-linejoin="round"/>
</svg>
