<svg width="24" height="24" viewBox="0 0 24 24" fill="none" xmlns="http://www.w3.org/2000/svg">
<path d="M17.7477 21H5.99746C5.59353 21.0003 5.19369 20.9189 4.82198 20.7607C4.45026 20.6025 4.11433 20.3707 3.83436 20.0793C3.55439 19.7879 3.33616 19.4429 3.19277 19.0649C3.04938 18.687 2.9838 18.2839 2.99996 17.88L3.26973 10.88C3.30072 10.1053 3.63015 9.37275 4.18897 8.83584C4.74779 8.29893 5.49259 7.99938 6.26723 8H17.4779C18.2525 7.99938 18.9973 8.29893 19.5561 8.83584C20.115 9.37275 20.4444 10.1053 20.4754 10.88L20.7452 17.88C20.7613 18.2839 20.6957 18.687 20.5523 19.0649C20.409 19.4429 20.1907 19.7879 19.9108 20.0793C19.6308 20.3707 19.2949 20.6025 18.9231 20.7607C18.5514 20.9189 18.1516 21.0003 17.7477 21Z" stroke="#191B1F" stroke-width="1.5" stroke-linecap="round" stroke-linejoin="round"/>
<path d="M7.87582 10L8.45534 6C8.56644 5.17105 8.97379 4.41044 9.60202 3.8589C10.2302 3.30737 11.0368 3.00224 11.8725 3C12.7082 3.00224 13.5147 3.30737 14.143 3.8589C14.7712 4.41044 15.1785 5.17105 15.2896 6L15.8692 10" stroke="#191B1F" stroke-width="1.5" stroke-linecap="round" stroke-linejoin="round"/>
</svg>
