<svg width="currentWidth" height="currentHeight" viewBox="0 0 24 24" fill="none" xmlns="http://www.w3.org/2000/svg">
<path d="M15.0002 19C15.0002 20.6569 13.6571 22 12.0002 22C10.3434 22 9.00021 20.6569 9.00021 19M13.7967 6.23856C14.2322 5.78864 14.5002 5.17562 14.5002 4.5C14.5002 3.11929 13.3809 2 12.0002 2C10.6195 2 9.50021 3.11929 9.50021 4.5C9.50021 5.17562 9.76821 5.78864 10.2037 6.23856M18.0002 11.2C18.0002 9.82087 17.3681 8.49823 16.2429 7.52304C15.1176 6.54786 13.5915 6 12.0002 6C10.4089 6 8.88279 6.54786 7.75757 7.52304C6.63235 8.49823 6.00021 9.82087 6.00021 11.2C6.00021 13.4818 5.43434 15.1506 4.72827 16.3447C3.92355 17.7056 3.52118 18.3861 3.53707 18.5486C3.55525 18.7346 3.58872 18.7933 3.73955 18.9036C3.87138 19 4.53372 19 5.8584 19H18.142C19.4667 19 20.129 19 20.2609 18.9036C20.4117 18.7933 20.4452 18.7346 20.4633 18.5486C20.4792 18.3861 20.0769 17.7056 19.2721 16.3447C18.5661 15.1506 18.0002 13.4818 18.0002 11.2Z" stroke="currentColor" stroke-width="1.5" stroke-linecap="round" stroke-linejoin="round"/>
</svg>
