<svg width="currentWidth" height="currentHeight" viewBox="0 0 24 24" fill="none" xmlns="http://www.w3.org/2000/svg">
<path d="M10.94 17.839L7.51 20.3869C7.26537 20.5782 6.9732 20.6993 6.66487 20.7372C6.35654 20.7751 6.0437 20.7284 5.75995 20.602C5.4762 20.4757 5.23225 20.2745 5.05432 20.0201C4.87638 19.7656 4.77118 19.4676 4.75 19.1579V6.84929C4.78647 5.85978 5.21452 4.92519 5.94014 4.25078C6.66575 3.57637 7.6296 3.21727 8.62 3.25236H15.38C16.3704 3.21727 17.3342 3.57637 18.0599 4.25078C18.7855 4.92519 19.2135 5.85978 19.25 6.84929V19.1579C19.2288 19.4676 19.1236 19.7656 18.9457 20.0201C18.7677 20.2745 18.5238 20.4757 18.24 20.602C17.9563 20.7284 17.6435 20.7751 17.3351 20.7372C17.0268 20.6993 16.7346 20.5782 16.49 20.3869L13.06 17.839C12.7521 17.6149 12.381 17.4941 12 17.4941C11.619 17.4941 11.2479 17.6149 10.94 17.839Z" stroke="currentColor" stroke-width="1.5" stroke-linecap="round" stroke-linejoin="round"/>
</svg>
