<svg width="24" height="24" viewBox="0 0 24 24" fill="none" xmlns="http://www.w3.org/2000/svg">
<path d="M12 7.98691C14.2606 6.646 16.743 5.7193 19.33 5.2505C19.5334 5.21058 19.7431 5.21625 19.944 5.26712C20.145 5.31798 20.3321 5.41276 20.4918 5.54462C20.6516 5.67648 20.7801 5.84213 20.868 6.0296C20.9558 6.21707 21.0009 6.4217 21 6.62869V17.6143C20.9992 17.9868 20.8594 18.3456 20.6079 18.6207C20.3565 18.8959 20.0114 19.0675 19.64 19.1023C17.1403 19.3026 14.6907 19.9133 12.39 20.9099C12.2668 20.9692 12.1318 21 11.995 21C11.8582 21 11.7232 20.9692 11.6 20.9099C9.30112 19.903 6.85149 19.2821 4.35001 19.0724C3.97959 19.0374 3.63564 18.8654 3.38581 18.59C3.13599 18.3146 2.99837 17.9559 3.00001 17.5843V6.59873C3.00348 6.39427 3.05181 6.19305 3.1416 6.00927C3.23139 5.82549 3.36045 5.66361 3.51969 5.53506C3.67893 5.4065 3.86446 5.31439 4.06322 5.26523C4.26197 5.21606 4.4691 5.21104 4.67001 5.2505C5.4559 5.40042 6.23359 5.59042 7.00001 5.81976" stroke="#191B1F" stroke-width="1.5" stroke-linecap="round" stroke-linejoin="round"/>
<path d="M12 7.98691C10.7847 6.23009 9.39056 4.60356 7.84001 3.13328C7.76909 3.06758 7.68061 3.02384 7.58529 3.00735C7.48998 2.99086 7.39192 3.00234 7.303 3.0404C7.21409 3.07845 7.13814 3.14145 7.08436 3.22175C7.03058 3.30205 7.00128 3.39621 7.00001 3.49281V14.9777C6.99921 15.2845 7.06916 15.5872 7.20442 15.8626C7.33969 16.138 7.53664 16.3785 7.78001 16.5656C9.40616 17.8071 10.8297 19.2928 12 20.9699" stroke="#191B1F" stroke-width="1.5" stroke-linecap="round" stroke-linejoin="round"/>
<path d="M12 7.98689V20.88" stroke="#191B1F" stroke-width="1.5" stroke-linecap="round" stroke-linejoin="round"/>
</svg>
