<svg width="24" height="24" viewBox="0 0 24 24" fill="none" xmlns="http://www.w3.org/2000/svg">
<path d="M2 21H22" stroke="#191B1F" stroke-width="1.5" stroke-linecap="round" stroke-linejoin="round"/>
<path d="M5 3H9.5C10.163 3 10.7989 3.26339 11.2678 3.73223C11.7366 4.20107 12 4.83696 12 5.5V21H2.5V5.5C2.5 4.83696 2.76339 4.20107 3.23223 3.73223C3.70107 3.26339 4.33696 3 5 3Z" stroke="#191B1F" stroke-width="1.5" stroke-linecap="round" stroke-linejoin="round"/>
<path d="M12 7.5H19C19.3283 7.5 19.6534 7.56466 19.9567 7.6903C20.26 7.81594 20.5356 8.00009 20.7678 8.23223C20.9999 8.46438 21.1841 8.73998 21.3097 9.04329C21.4353 9.34661 21.5 9.6717 21.5 10V21H12V7.5Z" stroke="#191B1F" stroke-width="1.5" stroke-linecap="round" stroke-linejoin="round"/>
<path d="M15.75 16.5H17.75" stroke="#191B1F" stroke-width="1.5" stroke-linecap="round" stroke-linejoin="round"/>
<path d="M15.75 12H17.75" stroke="#191B1F" stroke-width="1.5" stroke-linecap="round" stroke-linejoin="round"/>
<path d="M6.25 7.5H8.25" stroke="#191B1F" stroke-width="1.5" stroke-linecap="round" stroke-linejoin="round"/>
<path d="M6.29004 12H8.21004" stroke="#191B1F" stroke-width="1.5" stroke-linecap="round" stroke-linejoin="round"/>
<path d="M6.25 16.5H8.25" stroke="#191B1F" stroke-width="1.5" stroke-linecap="round" stroke-linejoin="round"/>
</svg>
