<svg width="24" height="24" viewBox="0 0 24 24" fill="none" xmlns="http://www.w3.org/2000/svg">
<path d="M4.95348 4.59197L4.30279 5.45996C3.78189 6.14839 3.5 6.9882 3.5 7.85164C3.5 8.71508 3.78189 9.55489 4.30279 10.2433C5.65421 12.0301 7.12558 13.7228 8.70669 15.3097C10.2935 16.8851 11.9854 18.3508 13.7707 19.6968C14.4588 20.218 15.2982 20.5 16.1613 20.5C17.0243 20.5 17.8637 20.218 18.5518 19.6968L19.4194 19.0458C19.7287 18.8141 19.9846 18.5187 20.1699 18.1794C20.3551 17.8401 20.4653 17.465 20.4931 17.0794C20.5208 16.6938 20.4654 16.3068 20.3306 15.9445C20.1957 15.5822 19.9847 15.2531 19.7117 14.9795L18.3915 13.6587C18.0386 13.3041 17.5872 13.064 17.0961 12.9698C16.6049 12.8756 16.0968 12.9315 15.6379 13.1303C15.1227 13.3471 14.5548 13.4063 14.006 13.3005C13.4572 13.1947 12.952 12.9287 12.5542 12.5359L11.4603 11.4415C11.0678 11.0435 10.8018 10.5381 10.6961 9.989C10.5904 9.43993 10.6496 8.87184 10.8662 8.35639C11.0649 7.89725 11.1208 7.38887 11.0267 6.89749C10.9325 6.4061 10.6925 5.95449 10.3381 5.60148L9.01789 4.28063C8.74314 4.00854 8.41315 3.79872 8.05026 3.6654C7.68738 3.53207 7.30008 3.47835 6.91463 3.50787C6.52918 3.5374 6.15457 3.64949 5.8162 3.83653C5.47784 4.02358 5.18361 4.28121 4.95348 4.59197Z" stroke="#191B1F" stroke-width="1.5" stroke-linecap="round" stroke-linejoin="round"/>
</svg>
