<svg width="24" height="24" viewBox="0 0 24 24" fill="none" xmlns="http://www.w3.org/2000/svg">
<path d="M4.43996 5.08214L3.78996 6.00303C3.27539 6.69427 2.99744 7.53329 2.99744 8.39533C2.99744 9.25737 3.27539 10.0964 3.78996 10.7876C5.13931 12.5649 6.61302 14.2441 8.19996 15.8125C9.78355 17.3959 11.4778 18.8644 13.27 20.2067C13.9605 20.7218 14.7988 21 15.66 21C16.5212 21 17.3594 20.7218 18.05 20.2067L18.92 19.5561C19.2282 19.3228 19.4831 19.0263 19.6674 18.6863C19.8518 18.3463 19.9614 17.9708 19.9888 17.585C20.0163 17.1992 19.961 16.8119 19.8267 16.4492C19.6923 16.0866 19.4821 15.7568 19.21 15.4822L17.89 14.1609C17.5391 13.8042 17.0884 13.5625 16.5973 13.4678C16.1063 13.3731 15.5981 13.4298 15.14 13.6304C14.6239 13.8504 14.0538 13.9108 13.5031 13.8038C12.9524 13.6968 12.4463 13.4272 12.05 13.0298L11 12.0088C10.6029 11.6121 10.3336 11.1055 10.2267 10.5543C10.1198 10.0031 10.1801 9.43243 10.4 8.91583C10.6004 8.45724 10.657 7.94856 10.5624 7.45705C10.4677 6.96554 10.2263 6.51436 9.86996 6.16318L8.50996 4.79186C8.23557 4.51949 7.90615 4.30901 7.54381 4.17454C7.18147 4.04008 6.79459 3.98473 6.40913 4.01222C6.02367 4.03972 5.64854 4.14941 5.30891 4.33394C4.96928 4.51847 4.673 4.77358 4.43996 5.08214Z" stroke="#191B1F" stroke-width="1.5" stroke-linecap="round" stroke-linejoin="round"/>
<path d="M14.5 3C16.1854 3.11676 17.7718 3.83972 18.9665 5.03551C20.1611 6.2313 20.8834 7.81921 21 9.50627" stroke="#191B1F" stroke-width="1.5" stroke-linecap="round" stroke-linejoin="round"/>
<path d="M14.5 6.54345C15.2602 6.64454 15.9659 6.99343 16.5082 7.53621C17.0505 8.07899 17.399 8.78543 17.5 9.54635" stroke="#191B1F" stroke-width="1.5" stroke-linecap="round" stroke-linejoin="round"/>
</svg>
