<svg width="24" height="24" viewBox="0 0 24 24" fill="none" xmlns="http://www.w3.org/2000/svg">
<path d="M17.0001 21H7.00012C5.93926 21 4.92184 20.5786 4.17169 19.8284C3.42155 19.0783 3.00012 18.0609 3.00012 17V10C3.00012 8.93913 3.42155 7.92172 4.17169 7.17157C4.92184 6.42143 5.93926 6 7.00012 6H7.50012L8.17012 4.66C8.4188 4.16187 8.80119 3.74278 9.27451 3.44961C9.74782 3.15644 10.2934 3.00076 10.8501 3H13.1501C13.7069 3.00076 14.2524 3.15644 14.7257 3.44961C15.199 3.74278 15.5814 4.16187 15.8301 4.66L16.5001 6H17.0001C18.061 6 19.0784 6.42143 19.8286 7.17157C20.5787 7.92172 21.0001 8.93913 21.0001 10V17C21.0001 18.0609 20.5787 19.0783 19.8286 19.8284C19.0784 20.5786 18.061 21 17.0001 21Z" stroke="#191B1F" stroke-width="1.5" stroke-linecap="round" stroke-linejoin="round"/>
<path d="M12.0001 17C13.657 17 15.0001 15.6569 15.0001 14C15.0001 12.3431 13.657 11 12.0001 11C10.3433 11 9.00012 12.3431 9.00012 14C9.00012 15.6569 10.3433 17 12.0001 17Z" stroke="#191B1F" stroke-width="1.5" stroke-linecap="round" stroke-linejoin="round"/>
<path d="M16.0001 9.5H16.0101" stroke="#191B1F" stroke-width="1.5" stroke-linecap="round" stroke-linejoin="round"/>
</svg>
