<svg width="24" height="24" viewBox="0 0 24 24" fill="none" xmlns="http://www.w3.org/2000/svg">
<path d="M5 9L6.25 5.89C6.46975 5.33809 6.84841 4.86385 7.33798 4.52738C7.82755 4.19091 8.406 4.00736 9 4H15C15.5991 4.00142 16.1841 4.1822 16.6796 4.51905C17.1751 4.8559 17.5583 5.33339 17.78 5.89L19 9" stroke="#191B1F" stroke-width="1.5" stroke-linecap="round" stroke-linejoin="round"/>
<path d="M7 9H17C18.0609 9 19.0783 9.42143 19.8284 10.1716C20.5786 10.9217 21 11.9391 21 13V17H3V13C3 11.9391 3.42143 10.9217 4.17157 10.1716C4.92172 9.42143 5.93913 9 7 9Z" stroke="#191B1F" stroke-width="1.5" stroke-linecap="round" stroke-linejoin="round"/>
<path d="M7 13H9" stroke="#191B1F" stroke-width="1.5" stroke-linecap="round" stroke-linejoin="round"/>
<path d="M15 13H17" stroke="#191B1F" stroke-width="1.5" stroke-linecap="round" stroke-linejoin="round"/>
<path d="M3 15V18.5C3 18.8978 3.15804 19.2794 3.43934 19.5607C3.72064 19.842 4.10218 20 4.5 20H6C6.39782 20 6.77936 19.842 7.06066 19.5607C7.34196 19.2794 7.5 18.8978 7.5 18.5V17" stroke="#191B1F" stroke-width="1.5" stroke-linecap="round" stroke-linejoin="round"/>
<path d="M16.5 17V18.5C16.5 18.8978 16.658 19.2794 16.9393 19.5607C17.2206 19.842 17.6022 20 18 20H19.5C19.8978 20 20.2794 19.842 20.5607 19.5607C20.842 19.2794 21 18.8978 21 18.5V15" stroke="#191B1F" stroke-width="1.5" stroke-linecap="round" stroke-linejoin="round"/>
<path d="M3 8H5" stroke="#191B1F" stroke-width="1.5" stroke-linecap="round" stroke-linejoin="round"/>
<path d="M19 8H21" stroke="#191B1F" stroke-width="1.5" stroke-linecap="round" stroke-linejoin="round"/>
</svg>
