<svg width="currentWidth" height="currentHeight" viewBox="0 0 24 24" fill="none" xmlns="http://www.w3.org/2000/svg">
<path d="M17.66 3.28002C17.1319 3.10041 16.5778 3.00919 16.02 3.01002H8.02002C6.69394 3.01002 5.42217 3.5368 4.48449 4.47448C3.5468 5.41216 3.02002 6.68393 3.02002 8.01002V13.01C3.02002 14.3361 3.5468 15.6079 4.48449 16.5455C5.42217 17.4832 6.69394 18.01 8.02002 18.01V19.89C8.02004 20.0961 8.07592 20.2983 8.18173 20.4752C8.28754 20.652 8.43931 20.7969 8.6209 20.8944C8.80249 20.9918 9.0071 21.0383 9.21297 21.0287C9.41883 21.0191 9.61826 20.9539 9.79002 20.84L13.27 18.52C13.7553 18.1938 14.3253 18.0166 14.91 18.01H16.02C17.3461 18.01 18.6179 17.4832 19.5556 16.5455C20.4932 15.6079 21.02 14.3361 21.02 13.01V8.01002C21.0214 6.97009 20.6985 5.95561 20.0962 5.10782C19.494 4.26003 18.6424 3.62111 17.66 3.28002Z" stroke="currentColor" stroke-width="1.5" stroke-linecap="round" stroke-linejoin="round"/>
<path d="M8 8.5H15.99" stroke="currentColor" stroke-width="1.5" stroke-linecap="round" stroke-linejoin="round"/>
<path d="M8 12.5H13" stroke="currentColor" stroke-width="1.5" stroke-linecap="round" stroke-linejoin="round"/>
</svg>
