<svg width="24" height="24" viewBox="0 0 24 24" fill="none" xmlns="http://www.w3.org/2000/svg">
<path d="M14.3638 3.31495C13.1389 2.98222 11.8573 2.91216 10.6034 3.10937C9.34941 3.30658 8.15139 3.76659 7.08798 4.45921C6.02457 5.15182 5.11982 6.06136 4.43316 7.12811C3.7465 8.19485 3.29346 9.39466 3.10379 10.6487C2.83205 12.4111 3.09684 14.2143 3.86379 15.8244C4.07358 16.2526 4.12324 16.7416 4.00379 17.2032L3.67379 18.4921C3.60453 18.7454 3.60355 19.0125 3.67095 19.2663C3.73834 19.52 3.87171 19.7515 4.05753 19.9372C4.24334 20.1228 4.475 20.2561 4.72899 20.3234C4.98299 20.3907 5.25029 20.3898 5.50379 20.3206L6.80379 19.9909C7.26813 19.8777 7.75768 19.9344 8.18379 20.1507C9.34265 20.6935 10.604 20.983 11.8838 21C14.2599 21.0009 16.5425 20.0752 18.2458 18.42C19.9491 16.7647 20.9387 14.5107 21.0038 12.1375C21.0359 10.1387 20.4006 8.18617 19.1981 6.58844C17.9956 4.99072 16.2946 3.83889 14.3638 3.31495Z" stroke="#191B1F" stroke-width="1.5" stroke-linecap="round" stroke-linejoin="round"/>
<path d="M16 12H16.01" stroke="#191B1F" stroke-width="1.5" stroke-linecap="round" stroke-linejoin="round"/>
<path d="M12 12H12.01" stroke="#191B1F" stroke-width="1.5" stroke-linecap="round" stroke-linejoin="round"/>
<path d="M8 12H8.01" stroke="#191B1F" stroke-width="1.5" stroke-linecap="round" stroke-linejoin="round"/>
</svg>
