<svg width="24" height="24" viewBox="0 0 24 24" fill="none" xmlns="http://www.w3.org/2000/svg">
<path d="M15 5H15.5C15.9596 5 16.4148 5.09053 16.8394 5.26642C17.264 5.44231 17.6499 5.70012 17.9749 6.02513C18.2999 6.35013 18.5577 6.73597 18.7336 7.16061C18.9095 7.58525 19 8.04037 19 8.5V17.5C19 18.4283 18.6313 19.3185 17.9749 19.9749C17.3185 20.6313 16.4283 21 15.5 21H8.5C7.57174 21 6.6815 20.6313 6.02513 19.9749C5.36875 19.3185 5 18.4283 5 17.5V8.5C5 7.57174 5.36875 6.6815 6.02513 6.02513C6.6815 5.36875 7.57174 5 8.5 5H8.95" stroke="#191B1F" stroke-width="1.5" stroke-linecap="round" stroke-linejoin="round"/>
<path d="M10 12H14" stroke="#191B1F" stroke-width="1.5" stroke-linecap="round" stroke-linejoin="round"/>
<path d="M10 16H13" stroke="#191B1F" stroke-width="1.5" stroke-linecap="round" stroke-linejoin="round"/>
<path d="M13 3H11C9.89543 3 9 3.89543 9 5C9 6.10457 9.89543 7 11 7H13C14.1046 7 15 6.10457 15 5C15 3.89543 14.1046 3 13 3Z" stroke="#191B1F" stroke-width="1.5" stroke-linecap="round" stroke-linejoin="round"/>
</svg>
