<svg width="24" height="24" viewBox="0 0 24 24" fill="none" xmlns="http://www.w3.org/2000/svg">
<path d="M8 9C7.07069 9 6.60603 9 6.21964 9.07686C4.63288 9.39249 3.39249 10.6329 3.07686 12.2196C3 12.606 3 13.0707 3 14V15C3 16.8638 3 17.7956 3.30448 18.5307C3.71046 19.5108 4.48915 20.2895 5.46927 20.6955C6.20435 21 7.13623 21 9 21H15C16.8638 21 17.7956 21 18.5307 20.6955C19.5108 20.2895 20.2895 19.5108 20.6955 18.5307C21 17.7956 21 16.8638 21 15V14C21 13.0707 21 12.606 20.9231 12.2196C20.6075 10.6329 19.3671 9.39249 17.7804 9.07686C17.394 9 16.9293 9 16 9" stroke="#191B1F" stroke-width="1.5" stroke-linecap="round" stroke-linejoin="round"/>
<path d="M12 13L12 3" stroke="#191B1F" stroke-width="1.5" stroke-linecap="round" stroke-linejoin="round"/>
<path d="M9 6L12 3L15 6" stroke="#191B1F" stroke-width="1.5" stroke-linecap="round" stroke-linejoin="round"/>
</svg>
