<svg width="24" height="24" viewBox="0 0 24 24" fill="none" xmlns="http://www.w3.org/2000/svg">
<path d="M3 5.00131V7.07266C2.99976 7.3642 3.06318 7.65228 3.18582 7.91673C3.30846 8.18118 3.48736 8.41562 3.71 8.60367L8.79 12.9065C9.01264 13.0945 9.19154 13.329 9.31418 13.5934C9.43682 13.8579 9.50024 14.1459 9.5 14.4375V20.1812C9.5003 20.3213 9.53641 20.4589 9.60489 20.581C9.67337 20.7031 9.77194 20.8057 9.89122 20.8789C10.0105 20.9521 10.1465 20.9936 10.2863 20.9993C10.4262 21.0051 10.5651 20.9749 10.69 20.9117L13.39 19.5608C13.7232 19.3952 14.0036 19.1397 14.1997 18.8233C14.3958 18.5069 14.4998 18.142 14.5 17.7697V14.4375C14.4998 14.1459 14.5632 13.8579 14.6858 13.5934C14.8085 13.329 14.9874 13.0945 15.21 12.9065L20.29 8.60367C20.5126 8.41562 20.6915 8.18118 20.8142 7.91673C20.9368 7.65228 21.0002 7.3642 21 7.07266V5.00131C21 4.47053 20.7893 3.96149 20.4142 3.58617C20.0391 3.21085 19.5304 3 19 3H5C4.46957 3 3.96086 3.21085 3.58579 3.58617C3.21071 3.96149 3 4.47053 3 5.00131Z" stroke="#191B1F" stroke-width="1.5" stroke-linecap="round" stroke-linejoin="round"/>
</svg>
