<svg width="24" height="24" viewBox="0 0 24 24" fill="none" xmlns="http://www.w3.org/2000/svg">
<path d="M14.0508 19.9992C14.6265 18.9044 15.0985 17.7515 15.4545 16.5527" stroke="#191B1F" stroke-width="1.5" stroke-linecap="round" stroke-linejoin="round"/>
<path d="M12.4698 11.1719C12.4698 14.3257 11.5203 17.2682 9.87891 19.7542" stroke="#191B1F" stroke-width="1.5" stroke-linecap="round" stroke-linejoin="round"/>
<path d="M6.64062 17.9269C6.65729 17.9002 6.67436 17.8736 6.69184 17.8471C7.96666 15.9163 8.70465 13.6331 8.70465 11.1746C8.70465 9.19371 10.3902 7.58789 12.4694 7.58789C14.5485 7.58789 16.2341 9.19371 16.2341 11.1746C16.2341 12.0865 16.1689 12.9846 16.0427 13.8646" stroke="#191B1F" stroke-width="1.5" stroke-linecap="round" stroke-linejoin="round"/>
<path d="M4 15.0878C4.60297 13.9053 4.94118 12.5776 4.94118 11.1746C4.94118 9.86801 5.30784 8.643 5.94848 7.58789" stroke="#191B1F" stroke-width="1.5" stroke-linecap="round" stroke-linejoin="round"/>
<path d="M19.0671 17.5685C19.6742 15.5364 19.9992 13.391 19.9992 11.1734C19.9992 7.21165 16.6282 4 12.4698 4C11.0984 4 9.81255 4.34932 8.70508 4.95967" stroke="#191B1F" stroke-width="1.5" stroke-linecap="round" stroke-linejoin="round"/>
</svg>
