<svg width="24" height="24" viewBox="0 0 24 24" fill="none" xmlns="http://www.w3.org/2000/svg">
<path d="M5.75 3C5.75 2.58579 5.41421 2.25 5 2.25C4.58579 2.25 4.25 2.58579 4.25 3H5.75ZM4.25 21C4.25 21.4142 4.58579 21.75 5 21.75C5.41421 21.75 5.75 21.4142 5.75 21H4.25ZM5 3.25C4.58579 3.25 4.25 3.58579 4.25 4C4.25 4.41421 4.58579 4.75 5 4.75V3.25ZM5 15.25C4.58579 15.25 4.25 15.5858 4.25 16C4.25 16.4142 4.58579 16.75 5 16.75V15.25ZM18.9977 14.0952L18.2486 14.0595L18.9977 14.0952ZM17.0952 15.9977L17.0595 15.2486L17.0952 15.9977ZM18.4475 12.4483L17.9047 12.9658L17.9047 12.9658L18.4475 12.4483ZM18.9994 13.7808L19.7492 13.7629L19.7492 13.7629L18.9994 13.7808ZM17.4142 8.58579L17.9445 9.11612L17.9445 9.11612L17.4142 8.58579ZM16.4142 10L17.1642 10L16.4142 10ZM18.9994 6.21921L19.7492 6.23708L19.7492 6.23708L18.9994 6.21921ZM18.3787 7.62132L17.8483 7.09099L17.8483 7.09099L18.3787 7.62132ZM18.4475 7.5517L17.9047 7.03415L17.9047 7.03415L18.4475 7.5517ZM17.0952 4.00227L17.0595 4.75142L17.0952 4.00227ZM18.9977 5.90475L18.2486 5.94047L18.9977 5.90475ZM4.25 3V21H5.75V3H4.25ZM5 4.75H16.8787V3.25H5V4.75ZM17.8483 7.09099L16.8839 8.05546L17.9445 9.11612L18.909 8.15165L17.8483 7.09099ZM16.8839 11.9445L17.8483 12.909L18.909 11.8483L17.9445 10.8839L16.8839 11.9445ZM16.8787 15.25H5V16.75H16.8787V15.25ZM18.25 13.8787C18.25 14 18.2498 14.0343 18.2486 14.0595L19.7469 14.131C19.7502 14.061 19.75 13.9827 19.75 13.8787H18.25ZM16.8787 16.75C16.9827 16.75 17.061 16.7502 17.131 16.7469L17.0595 15.2486C17.0343 15.2498 17 15.25 16.8787 15.25V16.75ZM18.2486 14.0595C18.2179 14.7031 17.7031 15.2179 17.0595 15.2486L17.131 16.7469C18.5468 16.6794 19.6794 15.5468 19.7469 14.131L18.2486 14.0595ZM17.8483 12.909C17.8858 12.9464 17.8958 12.9566 17.9047 12.9658L18.9903 11.9308C18.9663 11.9055 18.9414 11.8808 18.909 11.8483L17.8483 12.909ZM19.75 13.8787C19.75 13.8328 19.75 13.7977 19.7492 13.7629L18.2496 13.7987C18.25 13.8115 18.25 13.8257 18.25 13.8787H19.75ZM17.9047 12.9658C18.1192 13.1909 18.2422 13.4878 18.2496 13.7987L19.7492 13.7629C19.7329 13.0791 19.4623 12.4258 18.9903 11.9308L17.9047 12.9658ZM16.8839 8.05546C16.5655 8.3738 16.2723 8.66478 16.0679 8.93263C15.8504 9.21778 15.6642 9.56297 15.6642 10L17.1642 10C17.1642 9.99935 17.1642 9.99936 17.1642 9.9998C17.1641 10.0002 17.1641 10.0005 17.1641 10.0004C17.1641 10.0004 17.1643 9.99936 17.165 9.99731C17.1656 9.99522 17.1668 9.99174 17.1689 9.9867C17.178 9.96497 17.2014 9.91996 17.2605 9.8425C17.3895 9.67346 17.5962 9.46444 17.9445 9.11612L16.8839 8.05546ZM17.9445 10.8839C17.5962 10.5356 17.3894 10.3265 17.2605 10.1575C17.2014 10.08 17.178 10.035 17.1689 10.0133C17.1668 10.0083 17.1656 10.0048 17.165 10.0027C17.1643 10.0006 17.1641 9.99965 17.1641 9.99955C17.1641 9.99947 17.1641 9.99975 17.1642 10.0002C17.1642 10.0006 17.1642 10.0006 17.1642 10H15.6642C15.6642 10.437 15.8504 10.7822 16.0679 11.0674C16.2723 11.3352 16.5655 11.6262 16.8839 11.9445L17.9445 10.8839ZM18.25 6.12132C18.25 6.17426 18.25 6.18854 18.2496 6.20135L19.7492 6.23708C19.75 6.20225 19.75 6.16715 19.75 6.12132H18.25ZM18.909 8.15165C18.9414 8.11925 18.9663 8.09446 18.9903 8.06925L17.9047 7.03415C17.8958 7.04342 17.8858 7.05355 17.8483 7.09099L18.909 8.15165ZM18.2496 6.20135C18.2422 6.51219 18.1192 6.80912 17.9047 7.03415L18.9903 8.06925C19.4623 7.57417 19.7329 6.92093 19.7492 6.23708L18.2496 6.20135ZM16.8787 4.75C17 4.75 17.0343 4.75021 17.0595 4.75142L17.131 3.25312C17.061 3.24979 16.9827 3.25 16.8787 3.25V4.75ZM19.75 6.12132C19.75 6.01731 19.7502 5.93898 19.7469 5.86903L18.2486 5.94047C18.2498 5.96572 18.25 6.00003 18.25 6.12132H19.75ZM17.0595 4.75142C17.7031 4.7821 18.2179 5.29691 18.2486 5.94047L19.7469 5.86903C19.6794 4.45321 18.5468 3.32062 17.131 3.25312L17.0595 4.75142Z" fill="#191B1F"/>
</svg>
