<svg width="24" height="24" viewBox="0 0 24 24" fill="none" xmlns="http://www.w3.org/2000/svg">
<path d="M7 11.45V18C7 18.5304 7.21071 19.0392 7.58579 19.4142C7.96086 19.7893 8.46957 20 9 20H16.71C17.3677 20.0019 18.0078 19.7876 18.5318 19.3901C19.0558 18.9926 19.4346 18.4339 19.61 17.8L20.91 13.05C21.0085 12.6925 21.0231 12.3172 20.9528 11.9531C20.8825 11.589 20.7292 11.2461 20.5047 10.951C20.2802 10.6558 19.9906 10.4165 19.6586 10.2516C19.3265 10.0866 18.9608 10.0005 18.59 10H14L14.35 5.74001C14.3695 5.51843 14.3425 5.29523 14.2709 5.08465C14.1992 4.87406 14.0845 4.68074 13.9339 4.517C13.7833 4.35327 13.6003 4.22273 13.3964 4.13371C13.1926 4.04469 12.9724 3.99916 12.75 4.00001C12.5148 3.99972 12.2826 4.05159 12.0699 4.15188C11.8572 4.25217 11.6694 4.3984 11.52 4.58001L7.93 8.89001C7.33007 9.60828 7.00098 10.5142 7 11.45Z" stroke="#191B1F" stroke-width="1.5" stroke-linecap="round" stroke-linejoin="round"/>
<path d="M3.5 11.25C3.5 11.1119 3.38807 11 3.25 11C3.11193 11 3 11.1119 3 11.25V19.75C3 19.8881 3.11193 20 3.25 20C3.38807 20 3.5 19.8881 3.5 19.75V11.25Z" stroke="#191B1F" stroke-width="1.5" stroke-linecap="round" stroke-linejoin="round"/>
</svg>
