<svg width="24" height="24" viewBox="0 0 24 24" fill="none" xmlns="http://www.w3.org/2000/svg">
<path d="M5.27 6.52L9.54 3.73C10.2725 3.25481 11.1269 3.00194 12 3.00194C12.8731 3.00194 13.7275 3.25481 14.46 3.73L18.73 6.52C19.4272 6.97435 19.9999 7.59551 20.3963 8.32717C20.7927 9.05883 21.0002 9.87786 21 10.71V17C21 18.0609 20.5786 19.0783 19.8284 19.8284C19.0783 20.5786 18.0609 21 17 21H7C5.93913 21 4.92172 20.5786 4.17157 19.8284C3.42143 19.0783 3 18.0609 3 17V10.71C2.99982 9.87786 3.20733 9.05883 3.60372 8.32717C4.00011 7.59551 4.57285 6.97435 5.27 6.52Z" stroke="#191B1F" stroke-width="1.5" stroke-linecap="round" stroke-linejoin="round"/>
<path d="M9 16H15" stroke="#191B1F" stroke-width="1.5" stroke-linecap="round" stroke-linejoin="round"/>
</svg>
