<svg width="24" height="24" viewBox="0 0 24 24" fill="none" xmlns="http://www.w3.org/2000/svg">
<path d="M8 8.00002C7.07069 8.00002 6.60603 8.00002 6.21964 8.07688C4.63288 8.39251 3.39249 9.6329 3.07686 11.2197C3 11.6061 3 12.0707 3 13V14C3 15.8638 3 16.7957 3.30448 17.5308C3.71046 18.5109 4.48915 19.2896 5.46927 19.6955C6.20435 20 7.13623 20 9 20H15C16.8638 20 17.7956 20 18.5307 19.6955C19.5108 19.2896 20.2895 18.5109 20.6955 17.5308C21 16.7957 21 15.8638 21 14V13C21 12.0707 21 11.6061 20.9231 11.2197C20.6075 9.6329 19.3671 8.39251 17.7804 8.07688C17.394 8.00002 16.9293 8.00002 16 8.00002" stroke="#191B1F" stroke-width="1.5" stroke-linecap="round" stroke-linejoin="round"/>
<path d="M12 4.00009L12 14.0001" stroke="#191B1F" stroke-width="1.5" stroke-linecap="round" stroke-linejoin="round"/>
<path d="M15 11.0001L12 14.0001L9 11.0001" stroke="#191B1F" stroke-width="1.5" stroke-linecap="round" stroke-linejoin="round"/>
</svg>
