<svg width="24" height="24" viewBox="0 0 24 24" fill="none" xmlns="http://www.w3.org/2000/svg">
<path d="M12 7C11.6044 7 11.2178 6.8827 10.8889 6.66294C10.56 6.44318 10.3036 6.13082 10.1522 5.76537C10.0009 5.39992 9.96126 4.99778 10.0384 4.60982C10.1156 4.22186 10.3061 3.86549 10.5858 3.58579C10.8655 3.30608 11.2219 3.1156 11.6098 3.03843C11.9978 2.96126 12.3999 3.00087 12.7654 3.15224C13.1308 3.30362 13.4432 3.55996 13.6629 3.88886C13.8827 4.21776 14 4.60444 14 5C14 5.53043 13.7893 6.03914 13.4142 6.41421C13.0391 6.78929 12.5304 7 12 7Z" fill="#191B1F"/>
<path d="M12 14C11.6044 14 11.2178 13.8827 10.8889 13.6629C10.56 13.4432 10.3036 13.1308 10.1522 12.7654C10.0009 12.3999 9.96126 11.9978 10.0384 11.6098C10.1156 11.2219 10.3061 10.8655 10.5858 10.5858C10.8655 10.3061 11.2219 10.1156 11.6098 10.0384C11.9978 9.96126 12.3999 10.0009 12.7654 10.1522C13.1308 10.3036 13.4432 10.56 13.6629 10.8889C13.8827 11.2178 14 11.6044 14 12C14 12.5304 13.7893 13.0391 13.4142 13.4142C13.0391 13.7893 12.5304 14 12 14Z" fill="#191B1F"/>
<path d="M12 21C11.6044 21 11.2178 20.8827 10.8889 20.6629C10.56 20.4432 10.3036 20.1308 10.1522 19.7654C10.0009 19.3999 9.96126 18.9978 10.0384 18.6098C10.1156 18.2219 10.3061 17.8655 10.5858 17.5858C10.8655 17.3061 11.2219 17.1156 11.6098 17.0384C11.9978 16.9613 12.3999 17.0009 12.7654 17.1522C13.1308 17.3036 13.4432 17.56 13.6629 17.8889C13.8827 18.2178 14 18.6044 14 19C14 19.5304 13.7893 20.0391 13.4142 20.4142C13.0391 20.7893 12.5304 21 12 21Z" fill="#191B1F"/>
</svg>
