<svg width="24" height="24" viewBox="0 0 24 24" fill="none" xmlns="http://www.w3.org/2000/svg">
<path d="M3.5 16H20.5C20.6326 16 20.7598 16.0527 20.8536 16.1464C20.9473 16.2402 21 16.3674 21 16.5C21 17.163 20.7366 17.7989 20.2678 18.2678C19.7989 18.7366 19.163 19 18.5 19H5.5C4.83696 19 4.20107 18.7366 3.73223 18.2678C3.26339 17.7989 3 17.163 3 16.5C3 16.3674 3.05268 16.2402 3.14645 16.1464C3.24021 16.0527 3.36739 16 3.5 16Z" stroke="#191B1F" stroke-width="1.5" stroke-linecap="round" stroke-linejoin="round"/>
<path d="M16 5H8C6.34315 5 5 6.34315 5 8V13C5 14.6569 6.34315 16 8 16H16C17.6569 16 19 14.6569 19 13V8C19 6.34315 17.6569 5 16 5Z" stroke="#191B1F" stroke-width="1.5" stroke-linecap="round" stroke-linejoin="round"/>
</svg>
