<svg width="24" height="24" viewBox="0 0 24 24" fill="none" xmlns="http://www.w3.org/2000/svg">
<path d="M10.6571 8.95885C10.3388 8.08433 10.1796 7.64707 10.1658 7.25135C10.1379 6.45158 10.4945 5.68677 11.1252 5.19408C11.4372 4.9503 11.8744 4.79115 12.7489 4.47285C13.6235 4.15455 14.0607 3.9954 14.4564 3.98159C15.2562 3.95366 16.021 4.31029 16.5137 4.94091C16.7575 5.25293 16.9166 5.69019 17.2349 6.5647L20.3131 15.0219C20.6314 15.8965 20.7906 16.3337 20.8044 16.7294C20.8323 17.5292 20.4757 18.294 19.8451 18.7867C19.533 19.0305 19.0958 19.1896 18.2213 19.5079C17.3468 19.8262 16.9095 19.9854 16.5138 19.9992C15.714 20.0271 14.9492 19.6705 14.4565 19.0399C14.2127 18.7279 14.0536 18.2906 13.7353 17.4161L10.6571 8.95885Z" stroke="#191B1F" stroke-width="1.5" stroke-linecap="round" stroke-linejoin="round"/>
<path d="M14.1616 8.35352L14.171 8.3501" stroke="#191B1F" stroke-width="1.5" stroke-linecap="round" stroke-linejoin="round"/>
<path d="M13.6088 17.0684L20.1867 14.6742" stroke="#191B1F" stroke-width="1.5" stroke-linecap="round" stroke-linejoin="round"/>
<path d="M3.15991 7.49883C3.15991 6.56819 3.15991 6.10287 3.28227 5.72628C3.52957 4.96519 4.12627 4.36848 4.88737 4.12119C5.26395 3.99883 5.72927 3.99883 6.65991 3.99883C7.59055 3.99883 8.05587 3.99883 8.43245 4.12119C9.19355 4.36848 9.79026 4.96519 10.0376 5.72628C10.1599 6.10287 10.1599 6.56819 10.1599 7.49883V16.4988C10.1599 17.4295 10.1599 17.8948 10.0376 18.2714C9.79026 19.0325 9.19355 19.6292 8.43245 19.8765C8.05587 19.9988 7.59055 19.9988 6.65991 19.9988C5.72927 19.9988 5.26395 19.9988 4.88737 19.8765C4.12627 19.6292 3.52957 19.0325 3.28227 18.2714C3.15991 17.8948 3.15991 17.4295 3.15991 16.4988V7.49883Z" stroke="#191B1F" stroke-width="1.5" stroke-linecap="round" stroke-linejoin="round"/>
<path d="M6.65997 8.12891H6.66997" stroke="#191B1F" stroke-width="1.5" stroke-linecap="round" stroke-linejoin="round"/>
<path d="M3.15997 16.1289H10.16" stroke="#191B1F" stroke-width="1.5" stroke-linecap="round" stroke-linejoin="round"/>
</svg>
