<svg width="24" height="24" viewBox="0 0 24 24" fill="none" xmlns="http://www.w3.org/2000/svg">
<path d="M14.081 17.0193L12.5152 18.5652C11.571 19.4849 10.3016 20 8.97954 20C7.65743 20 6.38803 19.4849 5.44386 18.5652C4.51838 17.627 4 16.3655 4 15.0517C4 13.7379 4.51838 12.4765 5.44386 11.5382L6.94905 9.93207" stroke="#191B1F" stroke-width="1.5" stroke-linecap="round" stroke-linejoin="round"/>
<path d="M8.94995 14.95L14.95 8.95001" stroke="#191B1F" stroke-width="1.5" stroke-linecap="round" stroke-linejoin="round"/>
<path d="M9.91898 6.98073L11.4848 5.43479C12.429 4.51513 13.6984 4 15.0205 4C16.3426 4 17.612 4.51513 18.5561 5.43479C19.4816 6.37304 20 7.63447 20 8.94828C20 10.2621 19.4816 11.5235 18.5561 12.4618L17.051 14.0679" stroke="#191B1F" stroke-width="1.5" stroke-linecap="round" stroke-linejoin="round"/>
</svg>
