<svg width="24" height="24" viewBox="0 0 24 24" fill="none" xmlns="http://www.w3.org/2000/svg">
<path d="M7.26465 16C7.26465 16.9293 7.26465 17.394 7.34151 17.7804C7.65713 19.3671 8.89752 20.6075 10.4843 20.9231C10.8707 21 11.3353 21 12.2646 21L13.2646 21C15.1284 21 16.0603 21 16.7954 20.6955C17.7755 20.2895 18.5542 19.5108 18.9602 18.5307C19.2646 17.7957 19.2646 16.8638 19.2646 15L19.2646 9C19.2646 7.13623 19.2646 6.20435 18.9602 5.46927C18.5542 4.48915 17.7755 3.71046 16.7954 3.30448C16.0603 3 15.1284 3 13.2646 3L12.2646 3C11.3353 3 10.8707 3 10.4843 3.07686C8.89753 3.39249 7.65713 4.63288 7.34151 6.21964C7.26465 6.60603 7.26465 7.07069 7.26465 8" stroke="#191B1F" stroke-width="1.5" stroke-linecap="round" stroke-linejoin="round"/>
<path d="M3.26465 12L13.2646 12" stroke="#191B1F" stroke-width="1.5" stroke-linecap="round" stroke-linejoin="round"/>
<path d="M10.2646 15L13.2646 12L10.2646 9" stroke="#191B1F" stroke-width="1.5" stroke-linecap="round" stroke-linejoin="round"/>
</svg>
