<svg width="24" height="24" viewBox="0 0 24 24" fill="none" xmlns="http://www.w3.org/2000/svg">
<path d="M15 8C15 7.07069 15 6.60603 14.9231 6.21964C14.6075 4.63288 13.3671 3.39249 11.7804 3.07686C11.394 3 10.9293 3 10 3L9 3C7.13623 3 6.20435 3 5.46927 3.30448C4.48915 3.71046 3.71046 4.48915 3.30448 5.46927C3 6.20435 3 7.13623 3 9L3 15C3 16.8638 3 17.7956 3.30448 18.5307C3.71046 19.5108 4.48915 20.2895 5.46927 20.6955C6.20435 21 7.13623 21 9 21L10 21C10.9293 21 11.394 21 11.7804 20.9231C13.3671 20.6075 14.6075 19.3671 14.9231 17.7804C15 17.394 15 16.9293 15 16" stroke="#191B1F" stroke-width="1.5" stroke-linecap="round" stroke-linejoin="round"/>
<path d="M11 12L21 12" stroke="#191B1F" stroke-width="1.5" stroke-linecap="round" stroke-linejoin="round"/>
<path d="M18 9L21 12L18 15" stroke="#191B1F" stroke-width="1.5" stroke-linecap="round" stroke-linejoin="round"/>
</svg>
