<svg width="24" height="24" viewBox="0 0 24 24" fill="none" xmlns="http://www.w3.org/2000/svg">
<g opacity="0.9">
<path d="M12 14C13.6513 14 14.99 12.6614 14.99 11.01C14.99 9.35869 13.6513 8.02002 12 8.02002C10.3487 8.02002 9.01001 9.35869 9.01001 11.01C9.01001 12.6614 10.3487 14 12 14Z" stroke="#191B1F" stroke-width="1.5" stroke-linecap="round" stroke-linejoin="round"/>
<path d="M20 11C20 16.49 14 21 12 21C10 21 4 16.5 4 11C4 8.87827 4.84285 6.84344 6.34315 5.34315C7.84344 3.84285 9.87827 3 12 3C14.1217 3 16.1566 3.84285 17.6569 5.34315C19.1571 6.84344 20 8.87827 20 11Z" stroke="#191B1F" stroke-width="1.5" stroke-linecap="round" stroke-linejoin="round"/>
</g>
</svg>
