<svg width="24" height="24" viewBox="0 0 24 24" fill="none" xmlns="http://www.w3.org/2000/svg">
<path d="M12.25 18.1669L10.11 16.7388C9.78135 16.5198 9.39511 16.4029 9.00001 16.4029C8.60491 16.4029 8.21867 16.5198 7.89001 16.7388L6.11001 17.9272C5.80839 18.1282 5.45773 18.2435 5.09554 18.2608C4.73336 18.2781 4.37328 18.1967 4.05383 18.0254C3.73437 17.8541 3.46757 17.5993 3.28194 17.2882C3.09632 16.9771 2.99887 16.6215 3.00001 16.2594V10.1474C2.99958 9.48957 3.16184 8.8418 3.47236 8.26164C3.78288 7.68148 4.23206 7.18689 4.78001 6.82178L6.25001 5.8231C7.0664 5.28616 8.02249 5 9.00001 5C9.97753 5 10.9336 5.28616 11.75 5.8231L13.89 7.25122C14.2187 7.47021 14.6049 7.58708 15 7.58708C15.3951 7.58708 15.7813 7.47021 16.11 7.25122L17.89 6.06278C18.193 5.86082 18.5456 5.74535 18.9095 5.72886C19.2735 5.71237 19.635 5.79546 19.9551 5.96919C20.2752 6.14291 20.5417 6.40065 20.7259 6.7146C20.91 7.02854 21.0048 7.38675 21 7.75056V13.8625C21.0004 14.5204 20.8382 15.1681 20.5277 15.7483C20.2171 16.3285 19.768 16.8231 19.22 17.1882L17.75 18.1869C16.9317 18.7208 15.9745 19.0035 14.997 19C14.0195 18.9964 13.0644 18.7068 12.25 18.1669Z" stroke="#191B1F" stroke-width="1.5" stroke-linecap="round" stroke-linejoin="round"/>
<path d="M9 16.3992V5.01416" stroke="#191B1F" stroke-width="1.5" stroke-linecap="round" stroke-linejoin="round"/>
<path d="M15 7.61083V18.9959" stroke="#191B1F" stroke-width="1.5" stroke-linecap="round" stroke-linejoin="round"/>
</svg>
