<svg width="24" height="24" viewBox="0 0 24 24" fill="none" xmlns="http://www.w3.org/2000/svg">
<path d="M7 12C7 12.3956 6.8827 12.7822 6.66294 13.1111C6.44318 13.44 6.13082 13.6964 5.76537 13.8478C5.39992 13.9991 4.99778 14.0387 4.60982 13.9616C4.22186 13.8844 3.86549 13.6939 3.58579 13.4142C3.30608 13.1345 3.1156 12.7781 3.03843 12.3902C2.96126 12.0022 3.00087 11.6001 3.15224 11.2346C3.30362 10.8692 3.55996 10.5568 3.88886 10.3371C4.21776 10.1173 4.60444 10 5 10C5.53043 10 6.03914 10.2107 6.41421 10.5858C6.78929 10.9609 7 11.4696 7 12Z" fill="#191B1F"/>
<path d="M14 12C14 12.3956 13.8827 12.7822 13.6629 13.1111C13.4432 13.44 13.1308 13.6964 12.7654 13.8478C12.3999 13.9991 11.9978 14.0387 11.6098 13.9616C11.2219 13.8844 10.8655 13.6939 10.5858 13.4142C10.3061 13.1345 10.1156 12.7781 10.0384 12.3902C9.96126 12.0022 10.0009 11.6001 10.1522 11.2346C10.3036 10.8692 10.56 10.5568 10.8889 10.3371C11.2178 10.1173 11.6044 10 12 10C12.5304 10 13.0391 10.2107 13.4142 10.5858C13.7893 10.9609 14 11.4696 14 12Z" fill="#191B1F"/>
<path d="M21 12C21 12.3956 20.8827 12.7822 20.6629 13.1111C20.4432 13.44 20.1308 13.6964 19.7654 13.8478C19.3999 13.9991 18.9978 14.0387 18.6098 13.9616C18.2219 13.8844 17.8655 13.6939 17.5858 13.4142C17.3061 13.1345 17.1156 12.7781 17.0384 12.3902C16.9613 12.0022 17.0009 11.6001 17.1522 11.2346C17.3036 10.8692 17.56 10.5568 17.8889 10.3371C18.2178 10.1173 18.6044 10 19 10C19.5304 10 20.0391 10.2107 20.4142 10.5858C20.7893 10.9609 21 11.4696 21 12Z" fill="#191B1F"/>
</svg>
