<svg width="24" height="24" viewBox="0 0 24 24" fill="none" xmlns="http://www.w3.org/2000/svg">
<path d="M12.1956 12.085L13.8116 12.9318C13.8799 12.9696 13.9577 12.9865 14.0355 12.9805C14.1112 12.9745 14.1836 12.9475 14.2448 12.9027C14.3075 12.8567 14.3563 12.7944 14.386 12.7226C14.4132 12.6513 14.4216 12.5741 14.4103 12.4986L14.0988 10.7026C14.0841 10.6369 14.0841 10.5687 14.0988 10.503C14.1203 10.4385 14.157 10.38 14.2059 10.3327L15.5104 9.06223C15.5646 9.00776 15.6031 8.93971 15.6219 8.86518C15.6407 8.7907 15.6392 8.71249 15.6174 8.63878C15.5934 8.56512 15.5497 8.49946 15.4909 8.44895C15.4326 8.39988 15.3618 8.36788 15.2864 8.35647L13.4806 8.0985C13.4143 8.08782 13.3514 8.0615 13.2973 8.02173C13.2431 7.98194 13.1991 7.92985 13.1691 7.86973L12.3611 6.22453C12.3286 6.15602 12.2778 6.09789 12.2141 6.05663C12.1505 6.01537 12.0767 5.99261 12.0009 5.9909C11.9232 5.98936 11.8468 6.01142 11.7819 6.05417C11.715 6.09369 11.6621 6.1533 11.631 6.22453L10.8035 7.86973C10.7737 7.92902 10.7304 7.98055 10.6772 8.02025C10.624 8.05995 10.5622 8.08674 10.4969 8.0985L8.71539 8.35647C8.63853 8.36775 8.56618 8.39972 8.50609 8.44895C8.44633 8.49857 8.40235 8.56454 8.37954 8.63878C8.36014 8.71217 8.36014 8.78932 8.37954 8.8627C8.39793 8.9393 8.43858 9.00872 8.49636 9.06223L9.80083 10.3327C9.848 10.3814 9.88447 10.4394 9.90791 10.503C9.9226 10.5687 9.9226 10.6369 9.90791 10.7026L9.5964 12.4986C9.57476 12.5718 9.57476 12.6495 9.5964 12.7226C9.62603 12.7944 9.67487 12.8567 9.73756 12.9027C9.79874 12.9475 9.87121 12.9745 9.94685 12.9805C10.0246 12.9865 10.1025 12.9696 10.1707 12.9318L11.7868 12.085C11.8467 12.053 11.9135 12.0363 11.9814 12.0363C12.0494 12.0363 12.1162 12.053 12.1761 12.085H12.1956Z" stroke="#191B1F" stroke-width="1.5" stroke-linecap="round" stroke-linejoin="round"/>
<path d="M12 16.9724C16.1421 16.9724 19.5 13.6207 19.5 9.48618C19.5 5.35168 16.1421 2 12 2C7.85786 2 4.5 5.35168 4.5 9.48618C4.5 13.6207 7.85786 16.9724 12 16.9724Z" stroke="#191B1F" stroke-width="1.5" stroke-linecap="round" stroke-linejoin="round"/>
<path d="M7.00001 15.2156V20.3062C6.99891 20.5864 7.06988 20.8622 7.20613 21.1072C7.34238 21.3521 7.53936 21.5581 7.77819 21.7054C8.01703 21.8526 8.28973 21.9362 8.57019 21.9481C8.85066 21.96 9.1295 21.8999 9.38001 21.7735L11.11 20.965C11.3866 20.8278 11.6912 20.7564 12 20.7564C12.3088 20.7564 12.6135 20.8278 12.89 20.965L14.62 21.8234C14.8743 21.952 15.1579 22.0121 15.4426 21.998C15.7273 21.9838 16.0035 21.8958 16.2437 21.7426C16.484 21.5895 16.6801 21.3764 16.8127 21.1245C16.9454 20.8726 17.0099 20.5906 17 20.3062V15.2156" stroke="#191B1F" stroke-width="1.5" stroke-linecap="round" stroke-linejoin="round"/>
</svg>
