<svg width="24" height="24" viewBox="0 0 24 24" fill="none" xmlns="http://www.w3.org/2000/svg">
<path d="M12 22C16.1421 22 19.5 18.6421 19.5 14.5C19.5 10.3579 16.1421 7 12 7C7.85786 7 4.5 10.3579 4.5 14.5C4.5 18.6421 7.85786 22 12 22Z" stroke="#191B1F" stroke-width="1.5" stroke-linecap="round" stroke-linejoin="round"/>
<path d="M12.1956 17.0986L13.8116 17.9455C13.8799 17.9833 13.9577 18.0002 14.0355 17.9942C14.1112 17.9881 14.1836 17.9612 14.2448 17.9163C14.3075 17.8704 14.3563 17.8081 14.386 17.7362C14.4132 17.6649 14.4216 17.5878 14.4103 17.5123L14.0988 15.7162C14.0841 15.6505 14.0841 15.5824 14.0988 15.5167C14.1203 15.4521 14.157 15.3936 14.2059 15.3463L15.5104 14.0759C15.5646 14.0214 15.6031 13.9534 15.6219 13.8788C15.6407 13.8043 15.6392 13.7261 15.6174 13.6524C15.5934 13.5788 15.5497 13.5131 15.4909 13.4626C15.4326 13.4135 15.3618 13.3815 15.2864 13.3701L13.4806 13.1121C13.4143 13.1015 13.3514 13.0752 13.2973 13.0354C13.2431 12.9956 13.1991 12.9435 13.1691 12.8834L12.3611 11.2382C12.3286 11.1697 12.2778 11.1115 12.2141 11.0703C12.1505 11.029 12.0767 11.0063 12.0009 11.0045C11.9232 11.003 11.8468 11.0251 11.7819 11.0678C11.715 11.1073 11.6621 11.167 11.631 11.2382L10.8035 12.8834C10.7737 12.9427 10.7304 12.9942 10.6772 13.0339C10.624 13.0736 10.5622 13.1004 10.4969 13.1121L8.71539 13.3701C8.63853 13.3814 8.56618 13.4134 8.50609 13.4626C8.44633 13.5122 8.40235 13.5782 8.37954 13.6524C8.36014 13.7258 8.36014 13.803 8.37954 13.8763C8.39793 13.953 8.43858 14.0224 8.49636 14.0759L9.80083 15.3463C9.848 15.395 9.88447 15.453 9.90791 15.5167C9.9226 15.5824 9.9226 15.6505 9.90791 15.7162L9.5964 17.5123C9.57476 17.5854 9.57476 17.6632 9.5964 17.7362C9.62603 17.8081 9.67487 17.8704 9.73756 17.9163C9.79874 17.9612 9.87121 17.9881 9.94685 17.9942C10.0246 18.0002 10.1025 17.9833 10.1707 17.9455L11.7868 17.0986C11.8467 17.0666 11.9135 17.0499 11.9814 17.0499C12.0494 17.0499 12.1162 17.0666 12.1761 17.0986H12.1956Z" stroke="#191B1F" stroke-width="1.5" stroke-linecap="round" stroke-linejoin="round"/>
<path d="M6.5 9.4L4.77 7.74C4.52715 7.50721 4.33378 7.2278 4.20147 6.91851C4.06916 6.60922 4.00064 6.2764 4 5.94V4C4 3.46957 4.21071 2.96086 4.58579 2.58579C4.96086 2.21071 5.46957 2 6 2H18C18.5304 2 19.0391 2.21071 19.4142 2.58579C19.7893 2.96086 20 3.46957 20 4V5.94C19.9994 6.2764 19.9308 6.60922 19.7985 6.91851C19.6662 7.2278 19.4728 7.50721 19.23 7.74L17.5 9.4" stroke="#191B1F" stroke-width="1.5" stroke-linecap="round" stroke-linejoin="round"/>
</svg>
