<svg width="24" height="24" viewBox="0 0 24 24" fill="none" xmlns="http://www.w3.org/2000/svg">
<path d="M16 7C16 4.79086 14.2091 3 12 3C9.79086 3 8 4.79086 8 7V10C8 12.2091 9.79086 14 12 14C14.2091 14 16 12.2091 16 10V7Z" stroke="#191B1F" stroke-width="1.5" stroke-linecap="round" stroke-linejoin="round"/>
<path d="M20 9V10C20 12.1217 19.1571 14.1566 17.6569 15.6569C16.1566 17.1571 14.1217 18 12 18C9.87827 18 7.84344 17.1571 6.34315 15.6569C4.84285 14.1566 4 12.1217 4 10V9" stroke="#191B1F" stroke-width="1.5" stroke-linecap="round" stroke-linejoin="round"/>
<path d="M12 18V21" stroke="#191B1F" stroke-width="1.5" stroke-linecap="round" stroke-linejoin="round"/>
</svg>
