<svg width="24" height="24" viewBox="0 0 24 24" fill="none" xmlns="http://www.w3.org/2000/svg">
<path d="M10.0272 20.958C8.84499 21.0663 7.65293 20.9649 6.50593 20.6587C6.02039 20.4581 5.57923 20.1636 5.20777 19.7921C4.8363 19.4206 4.54185 18.9793 4.3413 18.4937C4.03506 17.3466 3.93376 16.1544 4.04204 14.972V10.9813C4.04204 7.22012 4.04204 5.33453 5.20915 4.16727C6.37625 3 8.26158 3 12.0223 3H13.0198C15.8229 3 17.2194 3 18.2269 3.66844C18.6624 3.96451 19.0381 4.34024 19.3342 4.77584C20.0025 5.78348 20.0025 7.18021 20.0025 9.98365" stroke="#191B1F" stroke-width="1.5" stroke-linecap="round" stroke-linejoin="round"/>
<path d="M9.02966 7.98828H15.0148" stroke="#191B1F" stroke-width="1.5" stroke-linecap="round" stroke-linejoin="round"/>
<path d="M9.02966 12.9766H13.0198" stroke="#191B1F" stroke-width="1.5" stroke-linecap="round" stroke-linejoin="round"/>
<path d="M17.0897 20.3791L20.6608 16.7975C20.7642 16.6857 20.8485 16.5576 20.9102 16.4184C20.9695 16.2761 21 16.1236 21 15.9694C21 15.8153 20.9695 15.6628 20.9102 15.5205C20.8485 15.3813 20.7642 15.2532 20.6608 15.1414L19.8229 14.3034C19.7142 14.1936 19.5855 14.1056 19.4439 14.044C19.3021 13.998 19.154 13.9745 19.0049 13.9741C18.8513 13.978 18.6994 14.0084 18.5561 14.0639C18.4144 14.1255 18.2857 14.2136 18.177 14.3233L14.5959 17.8949C14.4148 18.0833 14.2694 18.303 14.1669 18.5434C14.0686 18.7876 14.0178 19.0484 14.0173 19.3116V20.4589C14.0199 20.5904 14.0732 20.7158 14.1662 20.8088C14.2592 20.9018 14.3846 20.9552 14.5161 20.9578H15.6832C15.9464 20.9573 16.2071 20.9065 16.4513 20.8081C16.6899 20.7079 16.9067 20.5622 17.0897 20.3791Z" stroke="#191B1F" stroke-width="1.5" stroke-linecap="round" stroke-linejoin="round"/>
</svg>
