<svg width="24" height="24" viewBox="0 0 24 24" fill="none" xmlns="http://www.w3.org/2000/svg">
<path d="M6.85144 4.62169L8.22838 3.83169C8.42149 3.71876 8.63496 3.64521 8.85653 3.61526C9.0781 3.5853 9.30339 3.59955 9.51944 3.65717C9.7355 3.71479 9.93806 3.81464 10.1155 3.951C10.2929 4.08735 10.4417 4.25751 10.5532 4.45169C10.7002 4.7208 10.9167 4.94532 11.18 5.10172C11.4433 5.25813 11.7438 5.34066 12.0499 5.34066C12.356 5.34066 12.6564 5.25813 12.9198 5.10172C13.1831 4.94532 13.3996 4.7208 13.5466 4.45169C13.7738 4.06153 14.1458 3.77734 14.5814 3.66117C15.017 3.545 15.4808 3.60631 15.8714 3.83169L17.2384 4.62169C17.4323 4.73599 17.6016 4.88782 17.7365 5.06833C17.8713 5.24885 17.9689 5.45444 18.0237 5.67314C18.0785 5.89185 18.0893 6.11929 18.0556 6.34222C18.0218 6.56516 17.9441 6.77913 17.8271 6.97169C17.6786 7.23145 17.6007 7.52572 17.6013 7.82507C17.6019 8.12443 17.6809 8.41839 17.8304 8.67756C17.9799 8.93672 18.1947 9.15201 18.4532 9.3019C18.7118 9.45179 19.0051 9.53103 19.3038 9.53169C19.7546 9.53434 20.186 9.71566 20.5038 10.0361C20.8216 10.3565 21 10.7899 21 11.2417V12.8317C21 13.2826 20.8213 13.715 20.5032 14.0338C20.1851 14.3526 19.7536 14.5317 19.3038 14.5317C19.0039 14.5293 18.7087 14.6066 18.4484 14.7558C18.188 14.9049 17.9718 15.1206 17.8217 15.3808C17.6716 15.641 17.593 15.9364 17.594 16.237C17.5949 16.5375 17.6753 16.8324 17.8271 17.0917C18.0519 17.4832 18.1131 17.948 17.9972 18.3846C17.8813 18.8211 17.5977 19.194 17.2084 19.4217L15.8315 20.2117C15.6378 20.3242 15.4238 20.3972 15.2018 20.4264C14.9798 20.4556 14.7543 20.4405 14.5382 20.382C14.322 20.3234 14.1196 20.2225 13.9426 20.0852C13.7655 19.9478 13.6174 19.7767 13.5067 19.5817C13.3597 19.3126 13.1432 19.0881 12.8799 18.9317C12.6165 18.7753 12.3161 18.6927 12.01 18.6927C11.7039 18.6927 11.4034 18.7753 11.1401 18.9317C10.8768 19.0881 10.6603 19.3126 10.5133 19.5817C10.2861 19.9719 9.91406 20.2561 9.47847 20.3722C9.04288 20.4884 8.57911 20.4271 8.18847 20.2017L6.81153 19.4117C6.42054 19.1856 6.13486 18.8135 6.01704 18.3768C5.89923 17.9401 5.95887 17.4744 6.18293 17.0817C6.3314 16.8219 6.40924 16.5277 6.40865 16.2283C6.40806 15.929 6.32906 15.635 6.17956 15.3758C6.03007 15.1167 5.8153 14.9014 5.55675 14.7515C5.29819 14.6016 5.0049 14.5224 4.70621 14.5217C4.25542 14.5217 3.82294 14.3429 3.50325 14.0244C3.18356 13.7059 3.00264 13.2735 3 12.8217V11.2317C3.00129 11.0041 3.04762 10.7791 3.13632 10.5696C3.22502 10.3601 3.35433 10.1703 3.51674 10.0112C3.67915 9.85218 3.87145 9.72701 4.08248 9.64298C4.29351 9.55894 4.51908 9.51772 4.74612 9.52169C5.04537 9.52484 5.34012 9.44857 5.60046 9.30065C5.8608 9.15272 6.07745 8.9384 6.22843 8.67944C6.37941 8.42048 6.45935 8.12609 6.46012 7.82616C6.46089 7.52623 6.38247 7.23143 6.23282 6.97169C6.11699 6.77733 6.04106 6.56175 6.00948 6.33758C5.97791 6.11341 5.99133 5.88519 6.04895 5.66629C6.10657 5.44739 6.20724 5.24223 6.34505 5.06285C6.48285 4.88347 6.65502 4.73349 6.85144 4.62169Z" stroke="currentColor" stroke-width="1.5" stroke-linecap="round" stroke-linejoin="round"/>
<path d="M12.0201 14.5216C13.3977 14.5216 14.5145 13.4023 14.5145 12.0216C14.5145 10.6409 13.3977 9.52163 12.0201 9.52163C10.6424 9.52163 9.52563 10.6409 9.52563 12.0216C9.52563 13.4023 10.6424 14.5216 12.0201 14.5216Z" stroke="currentColor" stroke-width="1.5" stroke-linecap="round" stroke-linejoin="round"/>
</svg>
