<svg width="currentWidth" height="currentHeight" viewBox="0 0 24 24" fill="currentColor" xmlns="http://www.w3.org/2000/svg">
<path d="M8 4H6C4.89543 4 4 4.89543 4 6V18C4 19.1046 4.89543 20 6 20H8C9.10457 20 10 19.1046 10 18V6C10 4.89543 9.10457 4 8 4Z" stroke="none" stroke-width="1.5" stroke-linecap="round" stroke-linejoin="round"/>
<path d="M18 4H16C14.8954 4 14 4.89543 14 6V18C14 19.1046 14.8954 20 16 20H18C19.1046 20 20 19.1046 20 18V6C20 4.89543 19.1046 4 18 4Z" stroke="none" stroke-width="1.5" stroke-linecap="round" stroke-linejoin="round"/>
</svg>
