<svg width="24" height="24" viewBox="0 0 24 24" fill="none" xmlns="http://www.w3.org/2000/svg">
<path d="M2.25 22.25H21.6942" stroke="#191B1F" stroke-width="1.5" stroke-linecap="round" stroke-linejoin="round"/>
<path d="M3.00705 18.0182L6.18468 14.8643L8.65505 17.3395L7.25052 18.7368H2.31973L3.00705 18.0182Z" stroke="#191B1F" stroke-width="1.5" stroke-linecap="round" stroke-linejoin="round"/>
<path d="M5.82815 12.3966L7.58906 10.6322L12.8718 15.9253L11.1109 17.6897C10.8307 17.9704 10.4506 18.1282 10.0543 18.1282C9.65804 18.1282 9.27799 17.9704 8.99778 17.6897L5.82815 14.5138C5.54794 14.2331 5.39052 13.8523 5.39052 13.4552C5.39052 13.0581 5.54794 12.6773 5.82815 12.3966Z" stroke="#191B1F" stroke-width="1.5" stroke-linecap="round" stroke-linejoin="round"/>
<path d="M20.8376 8.42672L14.9605 15.6428C14.8275 15.8037 14.6624 15.9349 14.4758 16.0281C14.2891 16.1212 14.0851 16.1742 13.8768 16.1836C13.6685 16.193 13.4606 16.1586 13.2664 16.0826C13.0722 16.0067 12.8959 15.8909 12.7491 15.7426L7.76847 10.7522C7.62023 10.6045 7.5048 10.427 7.42977 10.2315C7.35473 10.036 7.32178 9.82674 7.33307 9.61755C7.34435 9.40836 7.39962 9.20392 7.49526 9.01762C7.59089 8.83132 7.72473 8.66737 7.88801 8.53651L15.1298 2.62793C15.8783 2.01642 16.8269 1.70538 17.7914 1.75517C18.756 1.80497 19.6676 2.21205 20.3495 2.89741L20.6383 3.18685C21.3151 3.87949 21.7103 4.79968 21.7472 5.76826C21.784 6.73685 21.4597 7.68451 20.8376 8.42672Z" stroke="#191B1F" stroke-width="1.5" stroke-linecap="round" stroke-linejoin="round"/>
</svg>
