<svg width="24" height="24" viewBox="0 0 24 24" fill="none" xmlns="http://www.w3.org/2000/svg">
<path d="M4 5V19" stroke="#191B1F" stroke-width="1.5" stroke-linecap="round" stroke-linejoin="round"/>
<path d="M17.52 5.00006C18.1446 4.99711 18.7458 5.2378 19.1958 5.671C19.6458 6.1042 19.9092 6.69578 19.93 7.32006C20 8.54006 20 10.1701 20 12.0001C20 13.8301 20 15.4601 19.93 16.6801C19.9092 17.3043 19.6458 17.8959 19.1958 18.3291C18.7458 18.7623 18.1446 19.003 17.52 19.0001C17.0989 19.0005 16.685 18.8902 16.32 18.6801C15.32 18.1201 13.42 16.9801 12.63 16.5001L9.31 14.3901C8.90811 14.1342 8.57734 13.7809 8.34834 13.3631C8.11934 12.9454 7.99952 12.4765 8 12.0001C7.99644 11.5178 8.11576 11.0426 8.3467 10.6192C8.57764 10.1958 8.9126 9.83817 9.32 9.58006L12.51 7.58006C13.32 7.07006 15.34 5.89006 16.33 5.32006C16.6904 5.10761 17.1017 4.99701 17.52 5.00006Z" stroke="#191B1F" stroke-width="1.5" stroke-linecap="round" stroke-linejoin="round"/>
</svg>
