<svg width="currentWidth" height="currentHeight" viewBox="0 0 24 24" fill="currentColor" xmlns="http://www.w3.org/2000/svg">
<path d="M8.48 5.00006C7.85537 4.99711 7.25421 5.2378 6.8042 5.671C6.3542 6.1042 6.09081 6.69578 6.07 7.32006C6 8.54006 6 10.1701 6 12.0001C6 13.8301 6 15.4601 6.07 16.6801C6.09081 17.3043 6.3542 17.8959 6.8042 18.3291C7.25421 18.7623 7.85537 19.003 8.48 19.0001C8.90115 19.0005 9.315 18.8902 9.68 18.6801C10.68 18.1201 12.58 16.9801 13.37 16.5001L16.69 14.3901C17.0919 14.1342 17.4227 13.7809 17.6517 13.3631C17.8807 12.9454 18.0005 12.4765 18 12.0001C18.0036 11.5178 17.8842 11.0426 17.6533 10.6192C17.4224 10.1958 17.0874 9.83817 16.68 9.58006L13.49 7.58006C12.68 7.07006 10.66 5.89006 9.67 5.32006C9.30963 5.10761 8.89832 4.99701 8.48 5.00006Z" stroke="currentColor" stroke-width="1.5" stroke-linecap="round" stroke-linejoin="round"/>
</svg>
