<svg width="24" height="24" viewBox="0 0 24 24" fill="none" xmlns="http://www.w3.org/2000/svg">
<path d="M20 5V19" stroke="#191B1F" stroke-width="1.5" stroke-linecap="round" stroke-linejoin="round"/>
<path d="M6.48 5.00006C5.85537 4.99711 5.25421 5.2378 4.8042 5.671C4.3542 6.1042 4.09081 6.69578 4.07 7.32006C4 8.54006 4 10.1701 4 12.0001C4 13.8301 4 15.4601 4.07 16.6801C4.09081 17.3043 4.3542 17.8959 4.8042 18.3291C5.25421 18.7623 5.85537 19.003 6.48 19.0001C6.90115 19.0005 7.315 18.8902 7.68 18.6801C8.68 18.1201 10.58 16.9801 11.37 16.5001L14.69 14.3901C15.0919 14.1342 15.4227 13.7809 15.6517 13.3631C15.8807 12.9454 16.0005 12.4765 16 12.0001C16.0036 11.5178 15.8842 11.0426 15.6533 10.6192C15.4224 10.1958 15.0874 9.83817 14.68 9.58006L11.49 7.58006C10.68 7.07006 8.66 5.89006 7.67 5.32006C7.30963 5.10761 6.89832 4.99701 6.48 5.00006Z" stroke="#191B1F" stroke-width="1.5" stroke-linecap="round" stroke-linejoin="round"/>
</svg>
