<svg width="24" height="24" viewBox="0 0 24 24" fill="none" xmlns="http://www.w3.org/2000/svg">
<path d="M8.6 15H15.4C15.8243 15 16.2313 15.1686 16.5314 15.4686C16.8314 15.7687 17 16.1757 17 16.6V18.5C17 19.163 16.7366 19.7989 16.2678 20.2678C15.7989 20.7366 15.163 21 14.5 21H9.5C8.83696 21 8.20107 20.7366 7.73223 20.2678C7.26339 19.7989 7 19.163 7 18.5V16.6C7 16.1757 7.16857 15.7687 7.46863 15.4686C7.76869 15.1686 8.17565 15 8.6 15Z" stroke="#191B1F" stroke-width="1.5" stroke-linecap="round" stroke-linejoin="round"/>
<path d="M17 11.5H17.01" stroke="#191B1F" stroke-width="1.5" stroke-linecap="round" stroke-linejoin="round"/>
<path d="M7 17H6C5.20435 17 4.44129 16.6839 3.87868 16.1213C3.31607 15.5587 3 14.7956 3 14V11C3 10.2044 3.31607 9.44129 3.87868 8.87868C4.44129 8.31607 5.20435 8 6 8H18C18.7956 8 19.5587 8.31607 20.1213 8.87868C20.6839 9.44129 21 10.2044 21 11V14C21 14.7956 20.6839 15.5587 20.1213 16.1213C19.5587 16.6839 18.7956 17 18 17H17" stroke="#191B1F" stroke-width="1.5" stroke-linecap="round" stroke-linejoin="round"/>
<path d="M7 8V6C7 5.20435 7.31607 4.44129 7.87868 3.87868C8.44129 3.31607 9.20435 3 10 3H14C14.7956 3 15.5587 3.31607 16.1213 3.87868C16.6839 4.44129 17 5.20435 17 6V8" stroke="#191B1F" stroke-width="1.5" stroke-linecap="round" stroke-linejoin="round"/>
</svg>
