<svg width="24" height="24" viewBox="0 0 24 24" fill="none" xmlns="http://www.w3.org/2000/svg">
<path d="M4.50995 10.6191L5.75995 10.3091C5.90968 10.272 6.06597 10.2701 6.21658 10.3034C6.36719 10.3368 6.50805 10.4045 6.62813 10.5014C6.74821 10.5982 6.84426 10.7215 6.90876 10.8616C6.97326 11.0018 7.00447 11.1549 6.99995 11.3091V15.7491C7.00447 15.9033 6.97326 16.0565 6.90876 16.1966C6.84426 16.3367 6.74821 16.46 6.62813 16.5569C6.50805 16.6537 6.36719 16.7214 6.21658 16.7548C6.06597 16.7882 5.90968 16.7862 5.75995 16.7491L4.50995 16.4391C4.06805 16.3277 3.67747 16.0687 3.40286 15.7049C3.12826 15.3412 2.98611 14.8946 2.99995 14.4391V12.5591C2.99973 12.1138 3.14815 11.6811 3.42168 11.3297C3.69521 10.9783 4.0782 10.7282 4.50995 10.6191Z" stroke="#191B1F" stroke-width="1.5" stroke-linecap="round" stroke-linejoin="round"/>
<path d="M19.4899 10.6191L18.2399 10.3091C18.0902 10.272 17.9339 10.2701 17.7833 10.3034C17.6327 10.3368 17.4918 10.4045 17.3718 10.5014C17.2517 10.5982 17.1556 10.7215 17.0911 10.8616C17.0266 11.0018 16.9954 11.1549 16.9999 11.3091V15.7491C16.9954 15.9033 17.0266 16.0565 17.0911 16.1966C17.1556 16.3367 17.2517 16.46 17.3718 16.5569C17.4918 16.6537 17.6327 16.7214 17.7833 16.7548C17.9339 16.7882 18.0902 16.7862 18.2399 16.7491L19.4899 16.4391C19.9318 16.3277 20.3224 16.0687 20.597 15.7049C20.8716 15.3412 21.0138 14.8946 20.9999 14.4391V12.5591C21.0002 12.1138 20.8517 11.6811 20.5782 11.3297C20.3047 10.9783 19.9217 10.7282 19.4899 10.6191Z" stroke="#191B1F" stroke-width="1.5" stroke-linecap="round" stroke-linejoin="round"/>
<path d="M5 9.99951V8.99951C5 7.143 5.7375 5.36252 7.05025 4.04976C8.36301 2.73701 10.1435 1.99951 12 1.99951C13.8565 1.99951 15.637 2.73701 16.9497 4.04976C18.2625 5.36252 19 7.143 19 8.99951V9.99951" stroke="#191B1F" stroke-width="1.5" stroke-linecap="round" stroke-linejoin="round"/>
<path d="M13 18.9995H11C10.1716 18.9995 9.5 19.6711 9.5 20.4995C9.5 21.3279 10.1716 21.9995 11 21.9995H13C13.8284 21.9995 14.5 21.3279 14.5 20.4995C14.5 19.6711 13.8284 18.9995 13 18.9995Z" stroke="#191B1F" stroke-width="1.5" stroke-linecap="round" stroke-linejoin="round"/>
<path d="M19 16.9995C19 17.9278 18.6313 18.818 17.9749 19.4744C17.3185 20.1308 16.4283 20.4995 15.5 20.4995H14.5" stroke="#191B1F" stroke-width="1.5" stroke-linecap="round" stroke-linejoin="round"/>
</svg>
