<svg width="24" height="24" viewBox="0 0 24 24" fill="none" xmlns="http://www.w3.org/2000/svg">
<path d="M12 21C16.9706 21 21 16.9706 21 12C21 7.02944 16.9706 3 12 3C7.02944 3 3 7.02944 3 12C3 16.9706 7.02944 21 12 21Z" stroke="#191B1F" stroke-width="1.5" stroke-linecap="round" stroke-linejoin="round"/>
<path d="M10.8591 16.0101C10.8591 16.0121 10.8591 16.0141 10.8591 16.0161V16.0047C10.8591 16.0065 10.8591 16.0083 10.8591 16.0101C10.8604 15.7383 10.9438 15.4673 11.13 15.2861C11.3279 15.0922 11.5883 14.9895 11.8591 15.0009C12.13 14.9895 12.3904 15.0922 12.5883 15.2861C12.7654 15.48 12.8591 15.7423 12.8591 16.0047C12.8591 16.267 12.7654 16.5293 12.5987 16.7118C12.4008 16.9171 12.13 17.0198 11.8591 16.997C11.5883 17.0198 11.3175 16.9171 11.1195 16.7118C10.954 16.5306 10.8604 16.2706 10.8591 16.0101Z" fill="#191B1F"/>
<path d="M11.0192 14.0406C10.9992 13.5506 11.0792 13.0707 11.2492 12.6107C11.4692 12.1607 11.7792 11.7707 12.1592 11.4407C12.4692 11.1707 12.7592 10.8706 13.0192 10.5406C13.1992 10.2806 13.2992 9.97069 13.2992 9.65069C13.3192 9.30069 13.2092 8.95067 12.9792 8.69067C12.7192 8.45067 12.3792 8.33066 12.0292 8.36066C11.6792 8.34066 11.3292 8.46067 11.0592 8.69067C10.8092 8.92067 10.6792 9.24068 10.6892 9.57068H8.98919C8.96919 8.84068 9.27919 8.15066 9.82919 7.68066C10.4492 7.20066 11.2292 6.95066 12.0192 6.99066C12.8092 6.94066 13.5892 7.19066 14.2092 7.68066C14.7492 8.17066 15.0292 8.8707 14.9892 9.5907C14.9392 10.4207 14.5592 11.2007 13.9292 11.7507L13.0692 12.5607C12.7392 12.9807 12.5692 13.5007 12.5992 14.0307H11.0092L11.0192 14.0406Z" fill="#191B1F"/>
</svg>
