<svg width="24" height="24" viewBox="0 0 24 24" fill="none" xmlns="http://www.w3.org/2000/svg">
<path d="M7 17.006V3.69592C7.00171 3.57952 7.03336 3.46551 7.09192 3.36485C7.15048 3.26418 7.23397 3.18024 7.33439 3.12108C7.4348 3.06193 7.54876 3.02954 7.66532 3.02704C7.78189 3.02454 7.89713 3.05201 8 3.10681L9.42 3.91559C9.74299 4.09815 10.1105 4.18737 10.4814 4.17326C10.8522 4.15915 11.2119 4.04228 11.52 3.83571L12.18 3.39637C12.5679 3.13793 13.0237 3 13.49 3C13.9563 3 14.4121 3.13793 14.8 3.39637L15.46 3.83571C15.7681 4.04228 16.1278 4.15915 16.4986 4.17326C16.8695 4.18737 17.237 4.09815 17.56 3.91559L19 3.10681C19.1029 3.05201 19.2181 3.02454 19.3347 3.02704C19.4512 3.02954 19.5652 3.06193 19.6656 3.12108C19.766 3.18024 19.8495 3.26418 19.9081 3.36485C19.9666 3.46551 19.9983 3.57952 20 3.69592V18.0045C20 18.7989 19.6839 19.5609 19.1213 20.1226C18.5587 20.6844 17.7956 21 17 21C16.2044 21 15.4413 20.6844 14.8787 20.1226C14.3161 19.5609 14 18.7989 14 18.0045V17.006" stroke="#191B1F" stroke-width="1.5" stroke-linecap="round" stroke-linejoin="round"/>
<path d="M14 17.0059H4C4 18.0652 4.42143 19.081 5.17157 19.8301C5.92172 20.5791 6.93913 20.9999 8 20.9999H17" stroke="#191B1F" stroke-width="1.5" stroke-linecap="round" stroke-linejoin="round"/>
<path d="M11 9.01784H16" stroke="#191B1F" stroke-width="1.5" stroke-linecap="round" stroke-linejoin="round"/>
<path d="M11 13.0119H14" stroke="#191B1F" stroke-width="1.5" stroke-linecap="round" stroke-linejoin="round"/>
</svg>
