<svg width="24" height="24" viewBox="0 0 24 24" fill="none" xmlns="http://www.w3.org/2000/svg">
<path d="M21 9C21 9 19.6996 7.14 19.0795 6.45C18.2123 5.40458 17.132 4.55609 15.9108 3.96116C14.6896 3.36624 13.3554 3.03856 11.9975 3C10.303 3.00095 8.64316 3.47998 7.20887 4.38201C5.77458 5.28404 4.62405 6.57244 3.8896 8.09907C3.15514 9.62569 2.86657 11.3286 3.05708 13.0118C3.24759 14.6951 3.90943 16.2905 4.9665 17.6145C6.02358 18.9384 7.43296 19.9373 9.03259 20.4961C10.6322 21.055 12.3571 21.1512 14.009 20.7736C15.6609 20.396 17.1726 19.5601 18.3704 18.3618C19.5682 17.1636 20.4034 15.6517 20.7799 14" stroke="#191B1F" stroke-width="1.5" stroke-linecap="round" stroke-linejoin="round"/>
<path d="M20.9999 4V9H15.9985" stroke="#191B1F" stroke-width="1.5" stroke-linecap="round" stroke-linejoin="round"/>
</svg>
