<svg width="24" height="24" viewBox="0 0 24 24" fill="none" xmlns="http://www.w3.org/2000/svg">
<path d="M5.52 3.65892L3.96 5.73892C3.65102 6.1509 3.49652 6.35689 3.50011 6.52932C3.50323 6.67936 3.57358 6.82008 3.69175 6.9126C3.82754 7.01892 4.08503 7.01892 4.6 7.01892H19.4C19.915 7.01892 20.1725 7.01892 20.3083 6.9126C20.4264 6.82008 20.4968 6.67936 20.4999 6.52932C20.5035 6.35689 20.349 6.1509 20.04 5.73892L18.48 3.65892M5.52 3.65892C5.696 3.42426 5.784 3.30693 5.89552 3.2223C5.9943 3.14735 6.10616 3.09142 6.22539 3.05737C6.36 3.01892 6.50667 3.01892 6.8 3.01892H17.2C17.4933 3.01892 17.64 3.01892 17.7746 3.05737C17.8938 3.09142 18.0057 3.14735 18.1045 3.2223C18.216 3.30693 18.304 3.42426 18.48 3.65892M5.52 3.65892L3.64 6.16559C3.40254 6.4822 3.28381 6.64051 3.1995 6.81485C3.12469 6.96954 3.07012 7.13324 3.03715 7.30188C3 7.49194 3 7.68982 3 8.08559L3 17.8281C3 18.9482 3 19.5083 3.21799 19.9361C3.40973 20.3124 3.71569 20.6184 4.09202 20.8101C4.51984 21.0281 5.07989 21.0281 6.2 21.0281L17.8 21.0281C18.9201 21.0281 19.4802 21.0281 19.908 20.8101C20.2843 20.6184 20.5903 20.3124 20.782 19.9361C21 19.5083 21 18.9482 21 17.8281V8.08559C21 7.68982 21 7.49194 20.9628 7.30188C20.9299 7.13324 20.8753 6.96955 20.8005 6.81485C20.7162 6.64051 20.5975 6.48221 20.36 6.16559L18.48 3.65892M16 10.9559C16 12.0167 15.5786 13.0341 14.8284 13.7843C14.0783 14.5344 13.0609 14.9559 12 14.9559C10.9391 14.9559 9.92172 14.5344 9.17157 13.7843C8.42143 13.0341 8 12.0167 8 10.9559" stroke="#191B1F" stroke-width="1.5" stroke-linecap="round" stroke-linejoin="round"/>
</svg>
