<svg width="24" height="24" viewBox="0 0 24 24" fill="none" xmlns="http://www.w3.org/2000/svg">
<path fill-rule="evenodd" clip-rule="evenodd" d="M21.4246 16.3002C18.9053 19.2018 13.2821 22.7219 12 23.2618C10.7734 23.7782 10.8953 22.9976 10.9475 22.6632L10.9541 22.6207C10.9766 22.5008 11.0328 22.1596 11.1228 21.5973C11.1678 21.2824 11.2127 20.81 11.089 20.5064C10.9541 20.169 10.4255 20.0003 10.0319 19.9103C4.26242 19.1568 0 15.1193 0 10.3058C0 4.94125 5.37582 0.566362 12 0.566362C18.6129 0.566362 24 4.94125 24 10.3058C24 12.4539 23.1565 14.3883 21.4246 16.3002ZM19.8215 13.218H16.4476C16.3239 13.218 16.2227 13.1168 16.2227 12.9931V12.9818V7.75223C16.2227 7.62852 16.3239 7.5273 16.4476 7.5273H19.8215C19.9452 7.5273 20.0465 7.62852 20.0465 7.75223V8.60696C20.0465 8.73067 19.9452 8.83189 19.8215 8.83189H17.5272V9.72036H19.8215C19.9452 9.72036 20.0465 9.82158 20.0465 9.94529V10.8C20.0465 10.9237 19.9452 11.025 19.8215 11.025H17.5272V11.9134H19.8215C19.9452 11.9134 20.0465 12.0146 20.0465 12.1384V12.9931C20.0465 13.1168 19.9452 13.218 19.8215 13.218ZM3.97493 13.218H3.98618H7.34887C7.47259 13.218 7.5738 13.1168 7.5738 12.9931V12.1384C7.5738 12.0146 7.47259 11.9134 7.34887 11.9134H5.0546V7.75223C5.0546 7.62852 4.95338 7.5273 4.82967 7.5273H3.97493C3.85122 7.5273 3.75 7.62852 3.75 7.75223V12.9818V12.9931C3.75 13.1168 3.85122 13.218 3.97493 13.218ZM9.37653 7.5273H8.5218C8.39758 7.5273 8.29688 7.628 8.29688 7.75223V12.9931C8.29688 13.1173 8.39758 13.218 8.5218 13.218H9.37653C9.50076 13.218 9.60146 13.1173 9.60146 12.9931V7.75223C9.60146 7.628 9.50076 7.5273 9.37653 7.5273ZM15.4041 12.9931V7.75223C15.4041 7.62852 15.3028 7.5273 15.1679 7.5273H14.3244C14.2007 7.5273 14.0882 7.62852 14.0882 7.75223V10.8563L11.6927 7.62851C11.6927 7.62102 11.689 7.61352 11.6815 7.60602L11.659 7.58353L11.6477 7.57228H11.6365C11.6365 7.56478 11.6327 7.56104 11.6252 7.56104V7.54979H11.6028L11.5915 7.53854H11.5803C11.5728 7.53854 11.569 7.5348 11.569 7.5273H11.5578H11.5465H11.5353H11.524H11.5128H11.5015H10.6581C10.5343 7.5273 10.4219 7.62852 10.4219 7.75223V12.9931C10.4219 13.1168 10.5343 13.218 10.6581 13.218H11.5015C11.6365 13.218 11.7377 13.1168 11.7377 12.9931V9.87781L14.1332 13.1168C14.1482 13.1393 14.167 13.158 14.1894 13.173H14.2007C14.2007 13.1805 14.2044 13.1843 14.2119 13.1843L14.2232 13.1955H14.2344H14.2457V13.2068H14.2682C14.2832 13.2143 14.3019 13.218 14.3244 13.218H15.1679C15.3028 13.218 15.4041 13.1168 15.4041 12.9931Z" fill="#191B1F"/>
</svg>
