<svg width="24" height="24" viewBox="0 0 24 24" fill="none" xmlns="http://www.w3.org/2000/svg">
<path d="M17.3491 12.562C17.3744 15.2857 19.7596 16.1922 19.7858 16.204C19.7655 16.2676 19.4046 17.4959 18.529 18.7643C17.7725 19.861 16.9865 20.9535 15.7491 20.9762C14.5328 20.9988 14.1423 20.2615 12.7519 20.2615C11.3615 20.2615 10.9279 20.9535 9.77672 20.9988C8.58242 21.044 7.67296 19.8133 6.90972 18.7208C5.35113 16.4846 4.15937 12.4053 5.75938 9.65058C6.55389 8.28326 7.9747 7.41696 9.51639 7.39434C10.6896 7.37256 11.796 8.17686 12.5135 8.17686C13.2311 8.17686 14.575 7.20918 15.9899 7.35161C16.5816 7.37591 18.2442 7.58871 19.3108 9.137C19.2255 9.18978 17.3279 10.2848 17.3491 12.562ZM15.0636 5.87371C15.6975 5.11297 16.1243 4.05397 16.0077 3C15.094 3.03603 13.9885 3.60406 13.3326 4.36396C12.7451 5.03757 12.2304 6.115 12.369 7.14802C13.3883 7.22594 14.4297 6.63444 15.0636 5.87371Z" fill="#191B1F"/>
</svg>
