<svg width="24" height="24" viewBox="0 0 24 24" fill="none" xmlns="http://www.w3.org/2000/svg">
<path d="M12 24C18.6274 24 24 18.6274 24 12C24 5.37258 18.6274 0 12 0C5.37258 0 0 5.37258 0 12C0 18.6274 5.37258 24 12 24Z" fill="#FF0302"/>
<path d="M18.1353 9.49402C18.1353 9.49402 18.013 8.63071 17.6364 8.25163C17.1595 7.75272 16.6263 7.75027 16.3818 7.72092C14.6307 7.59375 12.0016 7.59375 12.0016 7.59375H11.9967C11.9967 7.59375 9.36763 7.59375 7.61654 7.72092C7.37198 7.75027 6.83882 7.75272 6.36192 8.25163C5.98529 8.63071 5.86546 9.49402 5.86546 9.49402C5.86546 9.49402 5.73828 10.509 5.73828 11.5215V12.4704C5.73828 13.4829 5.86301 14.4978 5.86301 14.4978C5.86301 14.4978 5.98529 15.3611 6.35948 15.7402C6.83638 16.2391 7.46247 16.222 7.74127 16.2758C8.74399 16.3712 11.9992 16.4005 11.9992 16.4005C11.9992 16.4005 14.6307 16.3957 16.3818 16.2709C16.6263 16.2416 17.1595 16.2391 17.6364 15.7402C18.013 15.3611 18.1353 14.4978 18.1353 14.4978C18.1353 14.4978 18.26 13.4853 18.26 12.4704V11.5215C18.26 10.509 18.1353 9.49402 18.1353 9.49402ZM10.7054 13.6223V10.103L14.0877 11.8687L10.7054 13.6223Z" fill="white"/>
</svg>
