<svg width="25" height="24" viewBox="0 0 25 24" fill="none" xmlns="http://www.w3.org/2000/svg">
<path fill-rule="evenodd" clip-rule="evenodd" d="M20.8904 1.35156H5.03942C2.79593 1.35156 0.96875 3.18645 0.96875 5.42223V15.2751C0.96875 17.5186 2.80364 19.3458 5.03942 19.3458H10.6366L11.6003 21.011L12.5486 22.6532C12.7182 22.9539 13.1499 22.9539 13.3272 22.6532L14.2755 21.011L15.2392 19.3458H20.8981C23.1416 19.3458 24.9688 17.5109 24.9688 15.2751V5.42994C24.9688 3.18645 23.1339 1.35156 20.8904 1.35156ZM14.0758 8.57031C12.85 8.57031 11.8555 9.54943 11.8555 10.7598C11.8555 11.9702 12.85 12.9494 14.0758 12.9494C15.3017 12.9494 16.2962 11.9702 16.2962 10.7598C16.2962 9.54943 15.3094 8.57031 14.0758 8.57031ZM14.0758 11.8083C13.4899 11.8083 13.0119 11.3381 13.0119 10.7598C13.0119 10.1816 13.4899 9.71133 14.0758 9.71133C14.6618 9.71133 15.1398 10.1816 15.1398 10.7598C15.1398 11.3381 14.6695 11.8083 14.0758 11.8083ZM5.78041 9.06567C6.12734 8.74957 6.5745 8.56454 7.0525 8.56454C8.16268 8.56454 9.04928 9.55137 9.04928 10.7618C9.04928 11.9722 8.15497 12.9513 7.0525 12.9513C6.56679 12.9513 6.12734 12.7586 5.78041 12.4502V12.8434H4.54688V7.25391H5.78041V9.06567ZM5.78812 11.1858C5.95773 11.579 6.35092 11.8488 6.80579 11.8488C7.42256 11.8488 7.91597 11.3631 7.91597 10.7541C7.91597 10.145 7.42256 9.65931 6.80579 9.65931C6.35092 9.65931 5.95773 9.92914 5.78812 10.3223C5.72644 10.4534 5.69561 10.5999 5.69561 10.7541C5.69561 10.9083 5.73415 11.0547 5.78812 11.1858ZM20.1397 8.65902V9.00596C19.7927 8.73612 19.361 8.57422 18.8984 8.57422C17.7651 8.57422 16.8477 9.5225 16.8477 10.6866C16.8477 11.8508 17.7651 12.7991 18.8984 12.7991C19.3687 12.7991 19.8004 12.6372 20.1397 12.3673V12.9533C20.1397 12.9533 20.0163 13.5315 19.1528 13.5315V14.6185C19.1528 14.6185 20.0857 14.7265 20.9183 13.8938C20.9183 13.8938 21.3038 13.4852 21.3886 12.9456V8.65902H20.1397ZM19.1297 11.7583C18.5052 11.7583 18.0041 11.2726 18.0041 10.6789C18.0041 10.0853 18.5129 9.5996 19.1297 9.5996C19.5691 9.5996 19.9546 9.8463 20.1397 10.2009C20.2168 10.3474 20.2553 10.5093 20.2553 10.6789C20.2553 10.8486 20.209 11.0182 20.1397 11.1569C19.9546 11.5193 19.5691 11.7583 19.1297 11.7583ZM9.1875 8.27071V7.15282C9.1875 7.15282 10.0047 7.04488 10.7294 7.90065C10.7294 7.90065 11.0609 8.31697 11.138 8.87206V8.90289V12.8502H9.86595V8.90289C9.75801 8.3478 9.1875 8.27071 9.1875 8.27071Z" fill="#191B1F"/>
</svg>
