<svg width="24" height="24" viewBox="0 0 24 24" fill="none" xmlns="http://www.w3.org/2000/svg">
<path d="M20.8208 8.7316C20.8208 8.7316 20.645 7.49059 20.1036 6.94567C19.4181 6.22848 18.6517 6.22496 18.3001 6.18278C15.7829 5.99996 12.0036 5.99996 12.0036 5.99996H11.9966C11.9966 5.99996 8.21731 5.99996 5.70012 6.18278C5.34856 6.22496 4.58215 6.22848 3.89661 6.94567C3.3552 7.49059 3.18293 8.7316 3.18293 8.7316C3.18293 8.7316 3.00012 10.1906 3.00012 11.6461V13.0101C3.00012 14.4656 3.17942 15.9246 3.17942 15.9246C3.17942 15.9246 3.3552 17.1656 3.89309 17.7105C4.57864 18.4277 5.47864 18.4031 5.87942 18.4804C7.32083 18.6175 12.0001 18.6597 12.0001 18.6597C12.0001 18.6597 15.7829 18.6527 18.3001 18.4734C18.6517 18.4312 19.4181 18.4277 20.1036 17.7105C20.645 17.1656 20.8208 15.9246 20.8208 15.9246C20.8208 15.9246 21.0001 14.4691 21.0001 13.0101V11.6461C21.0001 10.1906 20.8208 8.7316 20.8208 8.7316ZM10.1404 14.666V9.60699L15.0025 12.1453L10.1404 14.666Z" fill="#191B1F"/>
</svg>
