<svg width="24" height="24" viewBox="0 0 24 24" fill="none" xmlns="http://www.w3.org/2000/svg">
<path d="M19.8438 10.431H19.1998V10.399H11.9999V13.5985H16.5198C15.8598 15.4622 14.0879 16.798 11.9999 16.798C9.34793 16.798 7.19996 14.6503 7.19996 11.9988C7.19996 9.34717 9.34793 7.1995 11.9999 7.1995C13.2239 7.1995 14.3359 7.65943 15.1838 8.41531L17.4478 6.15166C16.0198 4.81987 14.1079 4 11.9999 4C7.57995 4 4 7.57944 4 11.9988C4 16.4181 7.57995 19.9975 11.9999 19.9975C16.4198 19.9975 19.9998 16.4141 19.9998 11.9988C19.9998 11.4628 19.9438 10.9389 19.8438 10.431Z" fill="#191B1F"/>
<path d="M4.92188 8.27533L7.54984 10.203C8.26183 8.44331 9.98181 7.1995 11.9978 7.1995C13.2218 7.1995 14.3337 7.65943 15.1817 8.41531L17.4457 6.15166C16.0177 4.81987 14.1058 4 11.9978 4C8.92582 4 6.26186 5.73573 4.92188 8.27533Z" fill="#191B1F"/>
<path d="M12.0003 20C14.0682 20 15.9442 19.2081 17.3642 17.9243L14.8882 15.8287C14.0842 16.4366 13.0883 16.8005 12.0003 16.8005C9.9203 16.8005 8.15233 15.4727 7.48834 13.621L4.88037 15.6327C6.20435 18.2243 8.89232 20 12.0003 20Z" fill="#191B1F"/>
<path d="M19.8449 10.4313H19.2009V10.3993H12.001V13.5988H16.5209C16.2049 14.4947 15.6289 15.2665 14.8849 15.8264L17.3609 17.9221C17.1849 18.0821 19.9969 15.9984 19.9969 11.999C19.9969 11.4631 19.9409 10.9392 19.8409 10.4313H19.8449Z" fill="#191B1F"/>
</svg>
