<svg width="24" height="24" viewBox="0 0 24 24" fill="none" xmlns="http://www.w3.org/2000/svg">
<path d="M12 24C18.6274 24 24 18.6274 24 12C24 5.37258 18.6274 0 12 0C5.37258 0 0 5.37258 0 12C0 18.6274 5.37258 24 12 24Z" fill="url(#paint0_linear_2_2717)"/>
<path d="M14.6409 5.5H9.56956C7.32086 5.5 5.5 7.32087 5.5 9.56957V14.6461C5.5 16.8948 7.32086 18.7157 9.56956 18.7157H14.6409C16.8896 18.7157 18.7104 16.8948 18.7104 14.6461V9.57478C18.7104 7.32609 16.8896 5.50522 14.6461 5.5H14.6409ZM17.4426 14.1557C17.4426 15.9713 15.9713 17.4478 14.1557 17.4478H10.0548C8.23913 17.4478 6.76261 15.9765 6.76261 14.1609V10.06C6.76261 8.24435 8.23391 6.76783 10.0548 6.76783H14.1504C15.9661 6.76783 17.4426 8.23913 17.4426 10.06V14.1557Z" fill="white"/>
<path d="M12.2808 8.65234C10.3608 8.65234 8.80078 10.2123 8.80078 12.1323C8.80078 14.0523 10.3608 15.6123 12.2808 15.6123C14.2008 15.6123 15.7608 14.0523 15.7608 12.1323C15.7608 10.2123 14.2008 8.65234 12.2808 8.65234ZM12.2808 14.2297C11.1225 14.2297 10.1886 13.2906 10.1886 12.1376C10.1886 10.9845 11.1277 10.0454 12.2808 10.0454C13.4338 10.0454 14.373 10.9845 14.373 12.1376C14.373 13.2958 13.4338 14.2297 12.2808 14.2297Z" fill="white"/>
<path d="M16.4067 8.59399C16.4067 9.08442 16.0102 9.48094 15.5198 9.48094C15.0293 9.48094 14.6328 9.08442 14.6328 8.59399C14.6328 8.10355 15.0293 7.70703 15.5198 7.70703C16.0102 7.70703 16.4067 8.10355 16.4067 8.59399Z" fill="white"/>
<defs>
<linearGradient id="paint0_linear_2_2717" x1="20" y1="3.25" x2="5.5" y2="22.25" gradientUnits="userSpaceOnUse">
<stop stop-color="#673DC6"/>
<stop offset="0.521984" stop-color="#EA2B7D"/>
<stop offset="1" stop-color="#F49553"/>
</linearGradient>
</defs>
</svg>
