<svg width="24" height="24" viewBox="0 0 24 24" fill="none" xmlns="http://www.w3.org/2000/svg">
<circle cx="12" cy="12" r="12" fill="white"/>
<path d="M17.8802 10.825H17.3972V10.801H11.9971V13.2011H15.3872C14.8922 14.5991 13.5632 15.6011 11.9971 15.6011C10.0081 15.6011 8.3971 13.9901 8.3971 12.0011C8.3971 10.012 10.0081 8.40101 11.9971 8.40101C12.9152 8.40101 13.7492 8.74601 14.3852 9.31302L16.0832 7.615C15.0122 6.61598 13.5782 6.00098 11.9971 6.00098C8.68211 6.00098 5.99707 8.68601 5.99707 12.0011C5.99707 15.3161 8.68211 18.0011 11.9971 18.0011C15.3122 18.0011 17.9972 15.3131 17.9972 12.0011C17.9972 11.599 17.9552 11.206 17.8802 10.825Z" fill="#FAB409"/>
<path d="M6.6886 9.20802L8.65962 10.654C9.19363 9.33402 10.4836 8.40101 11.9957 8.40101C12.9137 8.40101 13.7477 8.74601 14.3837 9.31302L16.0817 7.615C15.0107 6.61598 13.5767 6.00098 11.9957 6.00098C9.69164 6.00098 7.69361 7.30299 6.6886 9.20802Z" fill="#E73B2F"/>
<path d="M11.9974 18.0021C13.5484 18.0021 14.9555 17.4081 16.0205 16.445L14.1634 14.873C13.5604 15.329 12.8134 15.602 11.9974 15.602C10.4374 15.602 9.11138 14.606 8.61337 13.217L6.65735 14.726C7.65036 16.67 9.66639 18.0021 11.9974 18.0021Z" fill="#2E9E49"/>
<path d="M17.8802 10.8265H17.3972V10.8025H11.998V13.2022H15.3875C15.1506 13.8741 14.7186 14.453 14.1607 14.8729L16.0174 16.4447C15.8855 16.5647 17.9941 15.0019 17.9941 12.0024C17.9941 11.6004 17.9522 11.2075 17.8772 10.8265H17.8802Z" fill="#3A7AF2"/>
</svg>
