<svg width="26" height="26" viewBox="0 0 26 26" fill="none" xmlns="http://www.w3.org/2000/svg">
<circle cx="13" cy="13" r="12" stroke="#191B1F" stroke-width="1.5" stroke-linecap="round" stroke-linejoin="round"/>
<path d="M18.8763 11.8211H18.3933V11.7971H12.9932V14.1972H16.3833C15.8883 15.5952 14.5593 16.5972 12.9932 16.5972C11.0042 16.5972 9.3932 14.9862 9.3932 12.9971C9.3932 11.0081 11.0042 9.3971 12.9932 9.3971C13.9113 9.3971 14.7453 9.74211 15.3813 10.3091L17.0793 8.61109C16.0083 7.61208 14.5743 6.99707 12.9932 6.99707C9.6782 6.99707 6.99316 9.6821 6.99316 12.9971C6.99316 16.3122 9.6782 18.9972 12.9932 18.9972C16.3083 18.9972 18.9933 16.3092 18.9933 12.9971C18.9933 12.5951 18.9513 12.2021 18.8763 11.8211Z" fill="#191B1F"/>
<path d="M7.68469 10.2041L9.65572 11.6501C10.1897 10.3301 11.4797 9.3971 12.9918 9.3971C13.9098 9.3971 14.7438 9.74211 15.3798 10.3091L17.0778 8.61109C16.0068 7.61208 14.5728 6.99707 12.9918 6.99707C10.6877 6.99707 8.68971 8.29909 7.68469 10.2041Z" fill="#191B1F"/>
<path d="M12.9935 18.9982C14.5445 18.9982 15.9515 18.4041 17.0166 17.4411L15.1595 15.8691C14.5565 16.3251 13.8095 16.5981 12.9935 16.5981C11.4335 16.5981 10.1075 15.6021 9.60947 14.2131L7.65344 15.7221C8.64646 17.6661 10.6625 18.9982 12.9935 18.9982Z" fill="#191B1F"/>
<path d="M18.8763 11.8226H18.3933V11.7986H12.9941V14.1983H16.3836C16.1467 14.8702 15.7147 15.4491 15.1568 15.869L17.0135 17.4408C16.8816 17.5608 18.9902 15.998 18.9902 12.9985C18.9902 12.5965 18.9482 12.2036 18.8733 11.8226H18.8763Z" fill="#191B1F"/>
</svg>
