<svg width="26" height="26" viewBox="0 0 26 26" fill="none" xmlns="http://www.w3.org/2000/svg">
<circle cx="13" cy="13" r="12" stroke="#191B1F" stroke-width="1.5" stroke-linecap="round" stroke-linejoin="round"/>
<path d="M17.1047 12.9371C17.1245 15.0556 18.9796 15.7606 19 15.7698C18.9842 15.8193 18.7035 16.7746 18.0225 17.7611C17.4341 18.6141 16.8227 19.4639 15.8603 19.4815C14.9143 19.4991 14.6106 18.9256 13.5292 18.9256C12.4477 18.9256 12.1105 19.4639 11.2151 19.4991C10.2862 19.5342 9.57887 18.577 8.98525 17.7273C7.77301 15.9881 6.84608 12.8152 8.09053 10.6727C8.70848 9.60921 9.81356 8.93542 11.0127 8.91782C11.9251 8.90088 12.7856 9.52645 13.3438 9.52645C13.9019 9.52645 14.9472 8.77381 16.0476 8.88459C16.5078 8.90349 17.8009 9.069 18.6305 10.2732C18.5641 10.3143 17.0883 11.166 17.1047 12.9371ZM15.3271 7.73511C15.8202 7.14342 16.1522 6.31976 16.0614 5.5C15.3508 5.52802 14.4909 5.96983 13.9808 6.56086C13.5239 7.08477 13.1235 7.92278 13.2314 8.72624C14.0242 8.78684 14.8341 8.32679 15.3271 7.73511Z" fill="#191B1F"/>
</svg>
