<svg width="26" height="26" viewBox="0 0 26 26" fill="none" xmlns="http://www.w3.org/2000/svg">
<path d="M13 25C19.6274 25 25 19.6274 25 13C25 6.37258 19.6274 1 13 1C6.37258 1 1 6.37258 1 13C1 19.6274 6.37258 25 13 25Z" stroke="#191B1F" stroke-width="1.5" stroke-linecap="round" stroke-linejoin="round"/>
<path d="M13.0013 7.13672C9.68827 7.13672 6.99609 9.43237 6.99609 12.2602C7.05349 14.0811 8.09696 15.7298 9.72479 16.5541L9.16131 19.0741L11.8691 17.295C12.2448 17.3576 12.6204 17.3889 13.0013 17.3889C16.3144 17.3889 19.0065 15.0932 19.0065 12.2654C19.0065 9.43759 16.3196 7.14194 13.0013 7.14194" fill="#191B1F"/>
</svg>
