<svg width="24" height="24" viewBox="0 0 24 24" fill="none" xmlns="http://www.w3.org/2000/svg">
<circle cx="12" cy="12" r="12" fill="white"/>
<path fill-rule="evenodd" clip-rule="evenodd" d="M16.6639 5.73438H7.26213C5.93142 5.73438 4.84766 6.82272 4.84766 8.14885V13.993C4.84766 15.3237 5.936 16.4074 7.26213 16.4074H10.582L11.1536 17.3952L11.7161 18.3692C11.8167 18.5475 12.0728 18.5475 12.178 18.3692L12.7404 17.3952L13.312 16.4074H16.6685C17.9992 16.4074 19.083 15.3191 19.083 13.993V8.15342C19.083 6.82272 17.9946 5.73438 16.6639 5.73438ZM12.6217 10.0156C11.8946 10.0156 11.3047 10.5964 11.3047 11.3143C11.3047 12.0323 11.8946 12.613 12.6217 12.613C13.3488 12.613 13.9387 12.0323 13.9387 11.3143C13.9387 10.5964 13.3533 10.0156 12.6217 10.0156ZM12.6217 11.9362C12.2741 11.9362 11.9906 11.6573 11.9906 11.3143C11.9906 10.9714 12.2741 10.6924 12.6217 10.6924C12.9692 10.6924 13.2527 10.9714 13.2527 11.3143C13.2527 11.6573 12.9738 11.9362 12.6217 11.9362ZM7.70041 10.309C7.90619 10.1215 8.17141 10.0118 8.45493 10.0118C9.11342 10.0118 9.6393 10.5971 9.6393 11.315C9.6393 12.033 9.10885 12.6137 8.45493 12.6137C8.16684 12.6137 7.90619 12.4994 7.70041 12.3165V12.5497H6.96875V9.23438H7.70041V10.309ZM7.70498 11.5665C7.80558 11.7998 8.0388 11.9598 8.3086 11.9598C8.67443 11.9598 8.96709 11.6717 8.96709 11.3105C8.96709 10.9492 8.67443 10.6611 8.3086 10.6611C8.0388 10.6611 7.80558 10.8212 7.70498 11.0544C7.6684 11.1321 7.65011 11.219 7.65011 11.3105C7.65011 11.4019 7.67297 11.4888 7.70498 11.5665ZM16.2182 10.0659V10.2717C16.0125 10.1117 15.7564 10.0156 15.482 10.0156C14.8098 10.0156 14.2656 10.5781 14.2656 11.2686C14.2656 11.9591 14.8098 12.5216 15.482 12.5216C15.761 12.5216 16.017 12.4255 16.2182 12.2655V12.613C16.2182 12.613 16.1451 12.956 15.6329 12.956V13.6007C15.6329 13.6007 16.1862 13.6648 16.6801 13.1709C16.6801 13.1709 16.9087 12.9285 16.959 12.6084V10.0659H16.2182ZM15.6192 11.9042C15.2488 11.9042 14.9516 11.6161 14.9516 11.264C14.9516 10.9119 15.2534 10.6238 15.6192 10.6238C15.8798 10.6238 16.1085 10.7701 16.2182 10.9805C16.264 11.0674 16.2868 11.1634 16.2868 11.264C16.2868 11.3646 16.2594 11.4652 16.2182 11.5475C16.1085 11.7625 15.8798 11.9042 15.6192 11.9042ZM9.72266 9.83754V9.17447C9.72266 9.17447 10.2074 9.11045 10.6372 9.61804C10.6372 9.61804 10.8339 9.86497 10.8796 10.1942V10.2125V12.5538H10.1251V10.2125C10.061 9.88326 9.72266 9.83754 9.72266 9.83754Z" fill="#01D957"/>
</svg>
