<svg width="26" height="26" viewBox="0 0 26 26" fill="none" xmlns="http://www.w3.org/2000/svg">
<path d="M13 25C19.6274 25 25 19.6274 25 13C25 6.37258 19.6274 1 13 1C6.37258 1 1 6.37258 1 13C1 19.6274 6.37258 25 13 25Z" stroke="#191B1F" stroke-width="1.5" stroke-linecap="round" stroke-linejoin="round"/>
<path d="M19.1353 10.494C19.1353 10.494 19.013 9.63071 18.6364 9.25163C18.1595 8.75272 17.6263 8.75027 17.3818 8.72092C15.6307 8.59375 13.0016 8.59375 13.0016 8.59375H12.9967C12.9967 8.59375 10.3676 8.59375 8.61654 8.72092C8.37198 8.75027 7.83882 8.75272 7.36192 9.25163C6.98529 9.63071 6.86546 10.494 6.86546 10.494C6.86546 10.494 6.73828 11.509 6.73828 12.5215V13.4704C6.73828 14.4829 6.86301 15.4978 6.86301 15.4978C6.86301 15.4978 6.98529 16.3611 7.35948 16.7402C7.83638 17.2391 8.46247 17.222 8.74127 17.2758C9.74399 17.3712 12.9992 17.4005 12.9992 17.4005C12.9992 17.4005 15.6307 17.3957 17.3818 17.2709C17.6263 17.2416 18.1595 17.2391 18.6364 16.7402C19.013 16.3611 19.1353 15.4978 19.1353 15.4978C19.1353 15.4978 19.26 14.4853 19.26 13.4704V12.5215C19.26 11.509 19.1353 10.494 19.1353 10.494ZM11.7054 14.6223V11.103L15.0877 12.8687L11.7054 14.6223Z" fill="#191B1F"/>
</svg>
