<svg width="24" height="24" viewBox="0 0 24 24" fill="none" xmlns="http://www.w3.org/2000/svg">
<path d="M12 24C18.6274 24 24 18.6274 24 12C24 5.37258 18.6274 0 12 0C5.37258 0 0 5.37258 0 12C0 18.6274 5.37258 24 12 24Z" fill="#F9DB00"/>
<path d="M12.0013 6.13672C8.68827 6.13672 5.99609 8.43237 5.99609 11.2602C6.05349 13.0811 7.09696 14.7298 8.72479 15.5541L8.16131 18.0741L10.8691 16.295C11.2448 16.3576 11.6204 16.3889 12.0013 16.3889C15.3144 16.3889 18.0065 14.0932 18.0065 11.2654C18.0065 8.43759 15.3196 6.14194 12.0013 6.14194" fill="#3E1918"/>
</svg>
