<svg width="24" height="24" viewBox="0 0 24 24" fill="none" xmlns="http://www.w3.org/2000/svg">
<circle cx="12" cy="12" r="12" fill="#06C755"/>
<path fill-rule="evenodd" clip-rule="evenodd" d="M18.2875 14.9925C16.6075 16.9275 12.8575 19.275 12.0025 19.635C11.1845 19.9794 11.2658 19.4588 11.3006 19.2358L11.305 19.2075C11.32 19.1275 11.3575 18.9 11.4175 18.525C11.4475 18.315 11.4775 18 11.395 17.7975C11.305 17.5725 10.9525 17.46 10.69 17.4C6.8425 16.8975 4 14.205 4 10.995C4 7.4175 7.585 4.5 12.0025 4.5C16.4125 4.5 20.005 7.4175 20.005 10.995C20.005 12.4275 19.4425 13.7175 18.2875 14.9925ZM17.2164 12.9394H14.9664C14.8839 12.9394 14.8164 12.8719 14.8164 12.7894V12.7819V9.29439C14.8164 9.21189 14.8839 9.14439 14.9664 9.14439H17.2164C17.2989 9.14439 17.3664 9.21189 17.3664 9.29439V9.86439C17.3664 9.94689 17.2989 10.0144 17.2164 10.0144H15.6864V10.6069H17.2164C17.2989 10.6069 17.3664 10.6744 17.3664 10.7569V11.3269C17.3664 11.4094 17.2989 11.4769 17.2164 11.4769H15.6864V12.0694H17.2164C17.2989 12.0694 17.3664 12.1369 17.3664 12.2194V12.7894C17.3664 12.8719 17.2989 12.9394 17.2164 12.9394ZM6.65 12.9394H6.6575H8.9C8.9825 12.9394 9.05 12.8719 9.05 12.7894V12.2194C9.05 12.1369 8.9825 12.0694 8.9 12.0694H7.37V9.29439C7.37 9.21189 7.3025 9.14439 7.22 9.14439H6.65C6.5675 9.14439 6.5 9.21189 6.5 9.29439V12.7819V12.7894C6.5 12.8719 6.5675 12.9394 6.65 12.9394ZM10.2512 9.14439H9.68125C9.59841 9.14439 9.53125 9.21154 9.53125 9.29439V12.7894C9.53125 12.8722 9.59841 12.9394 9.68125 12.9394H10.2512C10.3341 12.9394 10.4012 12.8722 10.4012 12.7894V9.29439C10.4012 9.21154 10.3341 9.14439 10.2512 9.14439ZM14.2678 12.7894V9.29439C14.2678 9.21189 14.2003 9.14439 14.1103 9.14439H13.5478C13.4653 9.14439 13.3903 9.21189 13.3903 9.29439V11.3644L11.7928 9.21188C11.7928 9.20688 11.7903 9.20188 11.7853 9.19688L11.7703 9.18189L11.7628 9.17438H11.7553C11.7553 9.16938 11.7528 9.16689 11.7478 9.16689V9.15938H11.7328L11.7253 9.15189H11.7178C11.7128 9.15189 11.7103 9.14939 11.7103 9.14439H11.7028H11.6953H11.6878H11.6803H11.6728H11.6653H11.1028C11.0203 9.14439 10.9453 9.21189 10.9453 9.29439V12.7894C10.9453 12.8719 11.0203 12.9394 11.1028 12.9394H11.6653C11.7553 12.9394 11.8228 12.8719 11.8228 12.7894V10.7119L13.4203 12.8719C13.4303 12.8869 13.4428 12.8994 13.4578 12.9094H13.4653C13.4653 12.9144 13.4678 12.9169 13.4728 12.9169L13.4803 12.9244H13.4878H13.4953V12.9319H13.5103C13.5203 12.9369 13.5328 12.9394 13.5478 12.9394H14.1103C14.2003 12.9394 14.2678 12.8719 14.2678 12.7894Z" fill="white"/>
</svg>
