<svg width="26" height="26" viewBox="0 0 26 26" fill="none" xmlns="http://www.w3.org/2000/svg">
<path d="M13 25C19.6274 25 25 19.6274 25 13C25 6.37258 19.6274 1 13 1C6.37258 1 1 6.37258 1 13C1 19.6274 6.37258 25 13 25Z" stroke="#191B1F" stroke-width="1.5" stroke-linecap="round" stroke-linejoin="round"/>
<path d="M15.6409 6.5H10.5696C8.32086 6.5 6.5 8.32087 6.5 10.5696V15.6461C6.5 17.8948 8.32086 19.7157 10.5696 19.7157H15.6409C17.8896 19.7157 19.7104 17.8948 19.7104 15.6461V10.5748C19.7104 8.32609 17.8896 6.50522 15.6461 6.5H15.6409ZM18.4426 15.1557C18.4426 16.9713 16.9713 18.4478 15.1557 18.4478H11.0548C9.23913 18.4478 7.76261 16.9765 7.76261 15.1609V11.06C7.76261 9.24435 9.23391 7.76783 11.0548 7.76783H15.1504C16.9661 7.76783 18.4426 9.23913 18.4426 11.06V15.1557Z" fill="#191B1F"/>
<path d="M13.2808 9.65234C11.3608 9.65234 9.80078 11.2123 9.80078 13.1323C9.80078 15.0523 11.3608 16.6123 13.2808 16.6123C15.2008 16.6123 16.7608 15.0523 16.7608 13.1323C16.7608 11.2123 15.2008 9.65234 13.2808 9.65234ZM13.2808 15.2297C12.1225 15.2297 11.1886 14.2906 11.1886 13.1376C11.1886 11.9845 12.1277 11.0454 13.2808 11.0454C14.4338 11.0454 15.373 11.9845 15.373 13.1376C15.373 14.2958 14.4338 15.2297 13.2808 15.2297Z" fill="#191B1F"/>
<path d="M17.4067 9.59399C17.4067 10.0844 17.0102 10.4809 16.5198 10.4809C16.0293 10.4809 15.6328 10.0844 15.6328 9.59399C15.6328 9.10355 16.0293 8.70703 16.5198 8.70703C17.0102 8.70703 17.4067 9.10355 17.4067 9.59399Z" fill="#191B1F"/>
</svg>
