<svg width="26" height="26" viewBox="0 0 26 26" fill="none" xmlns="http://www.w3.org/2000/svg">
<circle cx="13" cy="13" r="12" stroke="#191B1F" stroke-width="1.5" stroke-linecap="round" stroke-linejoin="round"/>
<path fill-rule="evenodd" clip-rule="evenodd" d="M19.2875 15.9925C17.6075 17.9275 13.8575 20.275 13.0025 20.635C12.1845 20.9794 12.2658 20.4588 12.3006 20.2358L12.305 20.2075C12.32 20.1275 12.3575 19.9 12.4175 19.525C12.4475 19.315 12.4775 19 12.395 18.7975C12.305 18.5725 11.9525 18.46 11.69 18.4C7.8425 17.8975 5 15.205 5 11.995C5 8.4175 8.585 5.5 13.0025 5.5C17.4125 5.5 21.005 8.4175 21.005 11.995C21.005 13.4275 20.4425 14.7175 19.2875 15.9925ZM18.2164 13.9394H15.9664C15.8839 13.9394 15.8164 13.8719 15.8164 13.7894V13.7819V10.2944C15.8164 10.2119 15.8839 10.1444 15.9664 10.1444H18.2164C18.2989 10.1444 18.3664 10.2119 18.3664 10.2944V10.8644C18.3664 10.9469 18.2989 11.0144 18.2164 11.0144H16.6864V11.6069H18.2164C18.2989 11.6069 18.3664 11.6744 18.3664 11.7569V12.3269C18.3664 12.4094 18.2989 12.4769 18.2164 12.4769H16.6864V13.0694H18.2164C18.2989 13.0694 18.3664 13.1369 18.3664 13.2194V13.7894C18.3664 13.8719 18.2989 13.9394 18.2164 13.9394ZM7.65 13.9394H7.6575H9.9C9.9825 13.9394 10.05 13.8719 10.05 13.7894V13.2194C10.05 13.1369 9.9825 13.0694 9.9 13.0694H8.37V10.2944C8.37 10.2119 8.3025 10.1444 8.22 10.1444H7.65C7.5675 10.1444 7.5 10.2119 7.5 10.2944V13.7819V13.7894C7.5 13.8719 7.5675 13.9394 7.65 13.9394ZM11.2512 10.1444H10.6813C10.5984 10.1444 10.5312 10.2115 10.5312 10.2944V13.7894C10.5312 13.8722 10.5984 13.9394 10.6813 13.9394H11.2512C11.3341 13.9394 11.4012 13.8722 11.4012 13.7894V10.2944C11.4012 10.2115 11.3341 10.1444 11.2512 10.1444ZM15.2678 13.7894V10.2944C15.2678 10.2119 15.2003 10.1444 15.1103 10.1444H14.5478C14.4653 10.1444 14.3903 10.2119 14.3903 10.2944V12.3644L12.7928 10.2119C12.7928 10.2069 12.7903 10.2019 12.7853 10.1969L12.7703 10.1819L12.7628 10.1744H12.7553C12.7553 10.1694 12.7528 10.1669 12.7478 10.1669V10.1594H12.7328L12.7253 10.1519H12.7178C12.7128 10.1519 12.7103 10.1494 12.7103 10.1444H12.7028H12.6953H12.6878H12.6803H12.6728H12.6653H12.1028C12.0203 10.1444 11.9453 10.2119 11.9453 10.2944V13.7894C11.9453 13.8719 12.0203 13.9394 12.1028 13.9394H12.6653C12.7553 13.9394 12.8228 13.8719 12.8228 13.7894V11.7119L14.4203 13.8719C14.4303 13.8869 14.4428 13.8994 14.4578 13.9094H14.4653C14.4653 13.9144 14.4678 13.9169 14.4728 13.9169L14.4803 13.9244H14.4878H14.4953V13.9319H14.5103C14.5203 13.9369 14.5328 13.9394 14.5478 13.9394H15.1103C15.2003 13.9394 15.2678 13.8719 15.2678 13.7894Z" fill="#191B1F"/>
</svg>
