<svg width="24" height="24" viewBox="0 0 24 24" fill="none" xmlns="http://www.w3.org/2000/svg">
<circle cx="12" cy="12" r="12" fill="#191B1F"/>
<path d="M16.1047 11.9371C16.1245 14.0556 17.9796 14.7606 18 14.7698C17.9842 14.8193 17.7035 15.7746 17.0225 16.7611C16.4341 17.6141 15.8227 18.4639 14.8603 18.4815C13.9143 18.4991 13.6106 17.9256 12.5292 17.9256C11.4477 17.9256 11.1105 18.4639 10.2151 18.4991C9.28623 18.5342 8.57887 17.577 7.98525 16.7273C6.77301 14.9881 5.84608 11.8152 7.09053 9.67267C7.70848 8.60921 8.81356 7.93542 10.0127 7.91782C10.9251 7.90088 11.7856 8.52645 12.3438 8.52645C12.9019 8.52645 13.9472 7.77381 15.0476 7.88459C15.5078 7.90349 16.8009 8.069 17.6305 9.27322C17.5641 9.31427 16.0883 10.166 16.1047 11.9371ZM14.3271 6.73511C14.8202 6.14342 15.1522 5.31976 15.0614 4.5C14.3508 4.52802 13.4909 4.96983 12.9808 5.56086C12.5239 6.08477 12.1235 6.92278 12.2314 7.72624C13.0242 7.78684 13.8341 7.32679 14.3271 6.73511Z" fill="white"/>
</svg>
