<svg width="26" height="26" viewBox="0 0 26 26" fill="none" xmlns="http://www.w3.org/2000/svg">
<circle cx="13" cy="13" r="12" stroke="#191B1F" stroke-width="1.5" stroke-linecap="round" stroke-linejoin="round"/>
<path fill-rule="evenodd" clip-rule="evenodd" d="M17.6639 6.73438H8.26213C6.93142 6.73438 5.84766 7.82272 5.84766 9.14885V14.993C5.84766 16.3237 6.936 17.4074 8.26213 17.4074H11.582L12.1536 18.3952L12.7161 19.3692C12.8167 19.5475 13.0728 19.5475 13.178 19.3692L13.7404 18.3952L14.312 17.4074H17.6685C18.9992 17.4074 20.083 16.3191 20.083 14.993V9.15342C20.083 7.82272 18.9946 6.73438 17.6639 6.73438ZM13.6217 11.0156C12.8946 11.0156 12.3047 11.5964 12.3047 12.3143C12.3047 13.0323 12.8946 13.613 13.6217 13.613C14.3488 13.613 14.9387 13.0323 14.9387 12.3143C14.9387 11.5964 14.3533 11.0156 13.6217 11.0156ZM13.6217 12.9362C13.2741 12.9362 12.9906 12.6573 12.9906 12.3143C12.9906 11.9714 13.2741 11.6924 13.6217 11.6924C13.9692 11.6924 14.2527 11.9714 14.2527 12.3143C14.2527 12.6573 13.9738 12.9362 13.6217 12.9362ZM8.70041 11.309C8.90619 11.1215 9.17141 11.0118 9.45493 11.0118C10.1134 11.0118 10.6393 11.5971 10.6393 12.315C10.6393 13.033 10.1088 13.6137 9.45493 13.6137C9.16684 13.6137 8.90619 13.4994 8.70041 13.3165V13.5497H7.96875V10.2344H8.70041V11.309ZM8.70498 12.5665C8.80558 12.7998 9.0388 12.9598 9.3086 12.9598C9.67443 12.9598 9.96709 12.6717 9.96709 12.3105C9.96709 11.9492 9.67443 11.6611 9.3086 11.6611C9.0388 11.6611 8.80558 11.8212 8.70498 12.0544C8.6684 12.1321 8.65011 12.219 8.65011 12.3105C8.65011 12.4019 8.67297 12.4888 8.70498 12.5665ZM17.2182 11.0659V11.2717C17.0125 11.1117 16.7564 11.0156 16.482 11.0156C15.8098 11.0156 15.2656 11.5781 15.2656 12.2686C15.2656 12.9591 15.8098 13.5216 16.482 13.5216C16.761 13.5216 17.017 13.4255 17.2182 13.2655V13.613C17.2182 13.613 17.1451 13.956 16.6329 13.956V14.6007C16.6329 14.6007 17.1862 14.6648 17.6801 14.1709C17.6801 14.1709 17.9087 13.9285 17.959 13.6084V11.0659H17.2182ZM16.6192 12.9042C16.2488 12.9042 15.9516 12.6161 15.9516 12.264C15.9516 11.9119 16.2534 11.6238 16.6192 11.6238C16.8798 11.6238 17.1085 11.7701 17.2182 11.9805C17.264 12.0674 17.2868 12.1634 17.2868 12.264C17.2868 12.3646 17.2594 12.4652 17.2182 12.5475C17.1085 12.7625 16.8798 12.9042 16.6192 12.9042ZM10.7227 10.8375V10.1745C10.7227 10.1745 11.2074 10.1105 11.6372 10.618C11.6372 10.618 11.8339 10.865 11.8796 11.1942V11.2125V13.5538H11.1251V11.2125C11.061 10.8833 10.7227 10.8375 10.7227 10.8375Z" fill="#191B1F"/>
</svg>
