<svg width="24" height="24" viewBox="0 0 24 24" fill="none" xmlns="http://www.w3.org/2000/svg">
<path d="M12.0071 2.16136C15.2133 2.16136 15.593 2.17542 16.854 2.23169C18.0258 2.28326 18.6586 2.48017 19.0805 2.64427C19.6383 2.85993 20.0415 3.12248 20.4586 3.53975C20.8805 3.96171 21.1383 4.36023 21.354 4.91815C21.518 5.34011 21.7149 5.97773 21.7665 7.14515C21.8227 8.41102 21.8368 8.79078 21.8368 11.993C21.8368 15.1998 21.8227 15.5796 21.7665 16.8408C21.7149 18.0129 21.518 18.6458 21.354 19.0678C21.1383 19.6257 20.8758 20.0289 20.4586 20.4462C20.0368 20.8681 19.6383 21.126 19.0805 21.3417C18.6586 21.5058 18.0211 21.7027 16.854 21.7542C15.5883 21.8105 15.2086 21.8246 12.0071 21.8246C8.80083 21.8246 8.42114 21.8105 7.16021 21.7542C5.98833 21.7027 5.35552 21.5058 4.93364 21.3417C4.37583 21.126 3.97271 20.8635 3.55552 20.4462C3.13364 20.0242 2.87583 19.6257 2.66021 19.0678C2.49614 18.6458 2.29927 18.0082 2.24771 16.8408C2.19146 15.5749 2.17739 15.1952 2.17739 11.993C2.17739 8.78609 2.19146 8.40633 2.24771 7.14515C2.29927 5.97304 2.49614 5.34011 2.66021 4.91815C2.87583 4.36023 3.13833 3.95702 3.55552 3.53975C3.97739 3.1178 4.37583 2.85993 4.93364 2.64427C5.35552 2.48017 5.99302 2.28326 7.16021 2.23169C8.42114 2.17542 8.80083 2.16136 12.0071 2.16136ZM12.0071 0C8.74927 0 8.34146 0.0140652 7.06177 0.0703262C5.78677 0.126587 4.91021 0.332877 4.15083 0.628248C3.35864 0.937683 2.68833 1.34558 2.02271 2.01602C1.35239 2.68177 0.94458 3.35222 0.635205 4.13987C0.339893 4.90408 0.133643 5.77613 0.0773926 7.05138C0.0211426 8.336 0.00708008 8.7439 0.00708008 12.0023C0.00708008 15.2608 0.0211426 15.6687 0.0773926 16.9486C0.133643 18.2239 0.339893 19.1006 0.635205 19.8601C0.94458 20.6525 1.35239 21.3229 2.02271 21.9887C2.68833 22.6544 3.35864 23.067 4.14614 23.3718C4.91021 23.6671 5.78208 23.8734 7.05708 23.9297C8.33677 23.9859 8.74458 24 12.0024 24C15.2602 24 15.668 23.9859 16.9477 23.9297C18.2227 23.8734 19.0993 23.6671 19.8586 23.3718C20.6461 23.067 21.3165 22.6544 21.9821 21.9887C22.6477 21.3229 23.0602 20.6525 23.3649 19.8648C23.6602 19.1006 23.8665 18.2286 23.9227 16.9533C23.979 15.6734 23.993 15.2655 23.993 12.007C23.993 8.74858 23.979 8.34069 23.9227 7.06075C23.8665 5.78551 23.6602 4.90877 23.3649 4.14925C23.0696 3.35222 22.6618 2.68177 21.9915 2.01602C21.3258 1.35026 20.6555 0.937683 19.868 0.632936C19.104 0.337566 18.2321 0.131276 16.9571 0.0750147C15.6727 0.0140653 15.2649 0 12.0071 0Z" fill="url(#paint0_linear_2_2723)"/>
<path d="M12.0071 5.83708C8.60396 5.83708 5.84302 8.59855 5.84302 12.0023C5.84302 15.4061 8.60396 18.1676 12.0071 18.1676C15.4102 18.1676 18.1711 15.4061 18.1711 12.0023C18.1711 8.59855 15.4102 5.83708 12.0071 5.83708ZM12.0071 16.0016C9.79927 16.0016 8.00864 14.2106 8.00864 12.0023C8.00864 9.7941 9.79927 8.00313 12.0071 8.00313C14.2149 8.00313 16.0055 9.7941 16.0055 12.0023C16.0055 14.2106 14.2149 16.0016 12.0071 16.0016Z" fill="url(#paint1_linear_2_2723)"/>
<path d="M19.854 5.59222C19.854 6.3891 19.2071 7.03128 18.4149 7.03128C17.618 7.03128 16.9758 6.38441 16.9758 5.59222C16.9758 4.79534 17.6227 4.15315 18.4149 4.15315C19.2071 4.15315 19.854 4.80003 19.854 5.59222Z" fill="url(#paint2_linear_2_2723)"/>
<defs>
<linearGradient id="paint0_linear_2_2723" x1="12" y1="0" x2="12" y2="24" gradientUnits="userSpaceOnUse">
<stop stop-color="#6C3DC4"/>
<stop offset="0.364583" stop-color="#EA2C7D"/>
<stop offset="1" stop-color="#F49155"/>
</linearGradient>
<linearGradient id="paint1_linear_2_2723" x1="12.0071" y1="5.83708" x2="12.0071" y2="18.1676" gradientUnits="userSpaceOnUse">
<stop stop-color="#6C3DC4"/>
<stop offset="0.364583" stop-color="#EA2C7D"/>
<stop offset="1" stop-color="#F49155"/>
</linearGradient>
<linearGradient id="paint2_linear_2_2723" x1="18.4149" y1="4.15315" x2="18.4149" y2="7.03128" gradientUnits="userSpaceOnUse">
<stop stop-color="#6C3DC4"/>
<stop offset="0.364583" stop-color="#EA2C7D"/>
<stop offset="1" stop-color="#F49155"/>
</linearGradient>
</defs>
</svg>
