<svg width="currentWidth" height="currentHeight" viewBox="0 0 24 24" xmlns="http://www.w3.org/2000/svg">
  <path
    d="M12.4989 18.6272L16.62 20.7869C16.7941 20.8833 16.9926 20.9264 17.191 20.9111C17.3839 20.8957 17.5687 20.8269 17.7247 20.7126C17.8845 20.5953 18.0091 20.4365 18.0847 20.2532C18.1543 20.0715 18.1756 19.8747 18.1468 19.6822L17.3523 15.1019C17.3149 14.9342 17.3149 14.7605 17.3523 14.5929C17.4071 14.4283 17.5008 14.2792 17.6255 14.1585L20.9522 10.9186C21.0904 10.7797 21.1886 10.6062 21.2367 10.4161C21.2847 10.2262 21.2808 10.0267 21.2252 9.83874C21.1639 9.65088 21.0523 9.48345 20.9024 9.35463C20.7538 9.22949 20.5733 9.14788 20.3811 9.11879L15.7759 8.4609C15.6066 8.43367 15.4464 8.36656 15.3083 8.26512C15.1701 8.16366 15.058 8.0308 14.9814 7.87749L12.9209 3.6819C12.8381 3.50719 12.7083 3.35894 12.5461 3.25372C12.3839 3.1485 12.1956 3.09046 12.0024 3.08608C11.8041 3.08217 11.6093 3.13842 11.4438 3.24744C11.2731 3.34824 11.1384 3.50025 11.059 3.6819L8.94872 7.87749C8.87258 8.02869 8.76218 8.16011 8.62655 8.26136C8.4908 8.3626 8.33335 8.43092 8.16674 8.4609L3.62357 9.11879C3.42756 9.14755 3.24306 9.22907 3.08982 9.35463C2.93743 9.48117 2.82526 9.6494 2.76708 9.83874C2.71761 10.0259 2.71761 10.2226 2.76708 10.4098C2.81399 10.6051 2.91764 10.7822 3.06499 10.9186L6.39167 14.1585C6.51196 14.2827 6.60498 14.4307 6.66475 14.5929C6.70221 14.7605 6.70221 14.9342 6.66475 15.1019L5.87033 19.6822C5.81515 19.8686 5.81515 20.0669 5.87033 20.2532C5.9459 20.4365 6.07044 20.5953 6.23031 20.7126C6.38634 20.8269 6.57115 20.8957 6.76406 20.9111C6.96244 20.9264 7.16095 20.8833 7.33502 20.7869L11.4562 18.6272C11.609 18.5457 11.7795 18.5031 11.9526 18.5031C12.1259 18.5031 12.2964 18.5457 12.4492 18.6272H12.4989Z"
    fill="currentColor"
    stroke="currentColor"
    stroke-width="1.5"
    stroke-linecap="round"
    stroke-linejoin="round"
  />
</svg>

