<svg width="24" height="24" viewBox="0 0 24 24" fill="none" xmlns="http://www.w3.org/2000/svg">
<path d="M15.0244 16.9648C14.8997 16.9446 14.5793 16.8806 14.3027 16.82C14.2791 16.8166 14.2555 16.8099 14.2353 16.8065C12.6468 16.5168 12.377 15.887 12.2893 15.6815C12.0735 15.1796 12.0398 14.5734 12.0431 14.3982C12.0431 14.3578 12.0431 14.3544 12.0431 14.3174V12.0842H10.023C8.90671 12.0842 7.9995 11.1781 7.9995 10.0632V14.2904C7.99276 14.6037 7.9995 15.9375 8.57283 17.2713C9.12255 18.558 10.421 20.2051 13.4731 20.7743C14.5051 21 14.7175 21 14.8761 21C15.9924 21 16.8996 20.0973 16.8996 18.979C16.8996 17.8608 16.0733 17.0423 15.0278 16.9648H15.0244ZM14.8761 16.9581H14.8895C14.9165 16.9581 14.9502 16.9581 14.9941 16.9615C14.9536 16.9615 14.9165 16.9581 14.8761 16.9581Z" fill="#FB1397"/>
<path d="M10.023 8.04566H12.0465V5.02096C12.0465 3.90606 11.1427 3 10.023 3C8.90334 3 7.9995 3.90606 7.9995 5.02096L7.9995 10.0632C7.9995 8.94835 8.90671 8.04566 10.023 8.04566Z" fill="#FFA203"/>
<path d="M14.6096 12.0842C15.7259 12.0842 16.6331 11.1815 16.6331 10.0666C16.6331 8.95172 15.7293 8.04566 14.6096 8.04566H12.0431V12.0842H14.6096Z" fill="#01BDD7"/>
<path d="M10.023 12.0842H12.0465V8.04566H10.023C8.90671 8.04566 7.9995 8.94835 7.9995 10.0632C7.9995 11.1781 8.90334 12.0808 10.023 12.0808L10.023 12.0842Z" fill="#732DCE"/>
</svg>
