<svg width="currentWidth" height="currentHeight" viewBox="0 0 20 20" fill="none" xmlns="http://www.w3.org/2000/svg">
<path d="M6.66663 17.5V5.83333C6.66663 5.05836 6.66663 4.67087 6.75181 4.35295C6.98298 3.49022 7.65685 2.81635 8.51958 2.58519C8.83749 2.5 9.22498 2.5 9.99996 2.5C10.7749 2.5 11.1624 2.5 11.4803 2.58519C12.3431 2.81635 13.0169 3.49022 13.2481 4.35295C13.3333 4.67087 13.3333 5.05836 13.3333 5.83333V11.25M13.3333 14.5833V17.5M5.66663 17.5H14.3333C15.7334 17.5 16.4335 17.5 16.9683 17.2275C17.4387 16.9878 17.8211 16.6054 18.0608 16.135C18.3333 15.6002 18.3333 14.9001 18.3333 13.5V9.83333C18.3333 8.4332 18.3333 7.73314 18.0608 7.19836C17.8211 6.72795 17.4387 6.3455 16.9683 6.10582C16.4335 5.83333 15.7334 5.83333 14.3333 5.83333H5.66663C4.26649 5.83333 3.56643 5.83333 3.03165 6.10582C2.56124 6.3455 2.17879 6.72795 1.93911 7.19836C1.66663 7.73314 1.66663 8.4332 1.66663 9.83333V13.5C1.66663 14.9001 1.66663 15.6002 1.93911 16.135C2.17879 16.6054 2.56124 16.9878 3.03165 17.2275C3.56643 17.5 4.26649 17.5 5.66663 17.5ZM10.6666 14.5833H14.75C14.9833 14.5833 15.1 14.5833 15.1891 14.5379C15.2675 14.498 15.3313 14.4342 15.3712 14.3558C15.4166 14.2667 15.4166 14.15 15.4166 13.9167V11.9167C15.4166 11.6833 15.4166 11.5666 15.3712 11.4775C15.3313 11.3991 15.2675 11.3354 15.1891 11.2954C15.1 11.25 14.9833 11.25 14.75 11.25H10.6666C10.4333 11.25 10.3166 11.25 10.2275 11.2954C10.1491 11.3354 10.0853 11.3991 10.0454 11.4775C9.99996 11.5666 9.99996 11.6833 9.99996 11.9167V13.9167C9.99996 14.15 9.99996 14.2667 10.0454 14.3558C10.0853 14.4342 10.1491 14.498 10.2275 14.5379C10.3166 14.5833 10.4333 14.5833 10.6666 14.5833Z" stroke="currentColor" stroke-width="1.25" stroke-linecap="round" stroke-linejoin="round"/>
</svg>
