<svg width="24" height="24" viewBox="0 0 24 24" fill="none" xmlns="http://www.w3.org/2000/svg">
<path d="M16 9H8C5.79086 9 4 10.7909 4 13V17C4 19.2091 5.79086 21 8 21H16C18.2091 21 20 19.2091 20 17V13C20 10.7909 18.2091 9 16 9Z" stroke="#191B1F" stroke-width="1.5" stroke-linecap="round" stroke-linejoin="round"/>
<path d="M8.00001 9.00002V7.00002C7.99775 6.11759 8.28734 5.25918 8.8237 4.55847C9.36006 3.85775 10.1131 3.35406 10.9655 3.12584C11.8179 2.89762 12.7218 2.95767 13.5366 3.29665C14.3513 3.63563 15.0311 4.23451 15.47 5.00002" stroke="#191B1F" stroke-width="1.5" stroke-linecap="round" stroke-linejoin="round"/>
<path d="M12 14V16" stroke="#191B1F" stroke-width="1.5" stroke-linecap="round" stroke-linejoin="round"/>
</svg>
