<svg width="24" height="24" viewBox="0 0 24 24" fill="none" xmlns="http://www.w3.org/2000/svg">
<path d="M10.3323 3.74159C10.5429 3.50813 10.8002 3.3215 11.0875 3.19376C11.3748 3.06603 11.6856 3.00002 12 3.00002C12.3144 3.00002 12.6252 3.06603 12.9125 3.19376C13.1998 3.3215 13.4571 3.50813 13.6677 3.74159L14.1571 4.28116C14.3805 4.52407 14.6548 4.71454 14.9604 4.83892C15.266 4.9633 15.5953 5.01851 15.9247 5.00059H16.6637C16.9723 4.9894 17.2798 5.04197 17.5672 5.15501C17.8546 5.26805 18.1156 5.43914 18.3339 5.6576C18.5523 5.87606 18.7232 6.1372 18.8362 6.42473C18.9492 6.71225 19.0017 7.01999 18.9906 7.32874V8.06815C18.9739 8.39853 19.0306 8.72849 19.1567 9.03431C19.2828 9.34012 19.475 9.61417 19.7196 9.83674L20.2588 10.3264C20.4922 10.5371 20.6787 10.7946 20.8064 11.082C20.934 11.3694 21 11.6805 21 11.995C21 12.3096 20.934 12.6206 20.8064 12.908C20.6787 13.1955 20.4922 13.4529 20.2588 13.6637L19.7196 14.1533C19.475 14.3759 19.2828 14.6499 19.1567 14.9558C19.0306 15.2616 18.9739 15.5915 18.9906 15.9219V16.6613C19.0017 16.9701 18.9492 17.2778 18.8362 17.5653C18.7232 17.8529 18.5523 18.114 18.3339 18.3325C18.1156 18.5509 17.8546 18.722 17.5672 18.835C17.2798 18.9481 16.9723 19.0007 16.6637 18.9895H15.9247C15.5945 18.9728 15.2647 19.0296 14.9591 19.1557C14.6534 19.2818 14.3795 19.4742 14.1571 19.7189L13.6677 20.2585C13.4571 20.4919 13.1998 20.6785 12.9125 20.8063C12.6252 20.934 12.3144 21 12 21C11.6856 21 11.3748 20.934 11.0875 20.8063C10.8002 20.6785 10.5429 20.4919 10.3323 20.2585L9.84291 19.7189C9.62046 19.4742 9.34656 19.2818 9.04092 19.1557C8.73528 19.0296 8.4055 18.9728 8.0753 18.9895H7.3363C7.02772 19.0007 6.72016 18.9481 6.43279 18.835C6.14542 18.722 5.88443 18.5509 5.66609 18.3325C5.44775 18.114 5.27675 17.8529 5.16378 17.5653C5.0508 17.2778 4.99826 16.9701 5.00944 16.6613V15.9219C5.0261 15.5915 4.96936 15.2616 4.8433 14.9558C4.71725 14.6499 4.52501 14.3759 4.28042 14.1533L3.74115 13.6637C3.50782 13.4529 3.3213 13.1955 3.19363 12.908C3.06596 12.6206 3 12.3096 3 11.995C3 11.6805 3.06596 11.3694 3.19363 11.082C3.3213 10.7946 3.50782 10.5371 3.74115 10.3264L4.28042 9.83674C4.52501 9.61417 4.71725 9.34012 4.8433 9.03431C4.96936 8.72849 5.0261 8.39853 5.00944 8.06815V7.32874C4.99826 7.01999 5.0508 6.71225 5.16378 6.42473C5.27675 6.1372 5.44775 5.87606 5.66609 5.6576C5.88443 5.43914 6.14542 5.26805 6.43279 5.15501C6.72016 5.04197 7.02772 4.9894 7.3363 5.00059H8.0753C8.4055 5.01726 8.73528 4.96049 9.04092 4.83436C9.34656 4.70823 9.62046 4.51589 9.84291 4.27117L10.3323 3.74159Z" stroke="#191B1F" stroke-width="1.5" stroke-linecap="round" stroke-linejoin="round"/>
<path d="M9.01221 12.0022L11.0122 14.0022L15.0122 10.0022" stroke="#191B1F" stroke-width="1.5" stroke-linecap="round" stroke-linejoin="round"/>
</svg>
