<svg width="24" height="24" viewBox="0 0 24 24" fill="none" xmlns="http://www.w3.org/2000/svg">
<path d="M17 3H7C4.23858 3 2 5.23858 2 8V16C2 18.7614 4.23858 21 7 21H17C19.7614 21 22 18.7614 22 16V8C22 5.23858 19.7614 3 17 3Z" stroke="#191B1F" stroke-width="1.5" stroke-linecap="round" stroke-linejoin="round"/>
<path d="M17 9H22V15H17C16.2044 15 15.4413 14.6839 14.8787 14.1213C14.3161 13.5587 14 12.7956 14 12C14 11.2044 14.3161 10.4413 14.8787 9.87868C15.4413 9.31607 16.2044 9 17 9Z" stroke="#191B1F" stroke-width="1.5" stroke-linecap="round" stroke-linejoin="round"/>
<path d="M17 12H17.01" stroke="#191B1F" stroke-width="1.5" stroke-linecap="round" stroke-linejoin="round"/>
</svg>
