<svg xmlns="http://www.w3.org/2000/svg" width="600" height="400" viewBox="0 0 600 400"><rect width="100%" height="100%" fill="#DDDDDD"/><path fill="#999999" d="M127.1 171.545h4.83q1.77 0 3.09-.44t2.2-1.27 1.31-2.02.43-2.65q0-1.39-.43-2.52t-1.3-1.92q-.86-.79-2.18-1.21t-3.12-.42h-4.83zm-6.45-17.44h11.28q3.48 0 6.02.81 2.55.82 4.2 2.28 1.66 1.47 2.46 3.51.81 2.04.81 4.46 0 2.52-.84 4.62t-2.52 3.61-4.22 2.35q-2.53.84-5.91.84h-4.83v12.22h-6.45zm34.01 11.56.36 2.79q1.15-2.21 2.73-3.47 1.59-1.26 3.75-1.26 1.7 0 2.73.74l-.38 4.44q-.12.44-.35.62t-.61.18q-.36 0-1.07-.12t-1.38-.12q-.98 0-1.75.28-.77.29-1.38.83t-1.08 1.31-.88 1.75v15.17h-5.93v-24.62h3.48q.92 0 1.28.32t.48 1.16m23.56-1.87q2.74 0 4.98.89 2.25.89 3.84 2.52 1.6 1.63 2.46 3.98.87 2.36.87 5.26 0 2.93-.87 5.28-.86 2.35-2.46 4.01-1.59 1.65-3.84 2.54-2.24.89-4.98.89-2.76 0-5.01-.89-2.26-.89-3.85-2.54-1.6-1.66-2.48-4.01-.87-2.35-.87-5.28 0-2.9.87-5.26.88-2.35 2.48-3.98 1.59-1.63 3.85-2.52 2.25-.89 5.01-.89m0 20.81q3.08 0 4.55-2.06 1.48-2.07 1.48-6.05 0-3.99-1.48-6.07-1.47-2.09-4.55-2.09-3.12 0-4.62 2.1t-1.5 6.06 1.5 6.03q1.5 2.08 4.62 2.08m22.61 4.2h-5.93v-24.62h3.63q1.15 0 1.51 1.08l.38 1.82q.65-.72 1.36-1.32t1.51-1.03q.81-.43 1.73-.69.92-.25 2.03-.25 2.33 0 3.83 1.26t2.24 3.35q.58-1.22 1.44-2.1t1.9-1.43q1.03-.55 2.19-.81 1.17-.27 2.34-.27 2.04 0 3.63.63 1.58.62 2.66 1.82t1.64 2.93q.57 1.73.57 3.96v15.67h-5.93v-15.67q0-2.35-1.03-3.54t-3.03-1.19q-.91 0-1.69.31t-1.37.9q-.58.59-.92 1.48t-.34 2.04v15.67h-5.95v-15.67q0-2.47-.99-3.6-1-1.13-2.92-1.13-1.3 0-2.41.64-1.12.63-2.08 1.74zm45.17-25.01q2.74 0 4.98.89t3.84 2.52 2.46 3.98q.86 2.36.86 5.26 0 2.93-.86 5.28t-2.46 4.01q-1.6 1.65-3.84 2.54t-4.98.89q-2.76 0-5.02-.89-2.25-.89-3.85-2.54-1.59-1.66-2.47-4.01t-.88-5.28q0-2.9.88-5.26.88-2.35 2.47-3.98 1.6-1.63 3.85-2.52 2.26-.89 5.02-.89m0 20.81q3.07 0 4.55-2.06 1.47-2.07 1.47-6.05 0-3.99-1.47-6.07-1.48-2.09-4.55-2.09-3.12 0-4.62 2.1t-1.5 6.06 1.5 6.03q1.5 2.08 4.62 2.08m24.89 4.58q-3.22 0-4.93-1.81-1.72-1.81-1.72-5v-13.75h-2.52q-.48 0-.82-.32-.33-.31-.33-.93v-2.35l3.96-.65 1.25-6.72q.12-.48.45-.75.34-.26.87-.26h3.07v7.75h6.57v4.23h-6.57v13.34q0 1.15.56 1.8.57.65 1.55.65.55 0 .92-.13.38-.14.65-.28.28-.14.49-.28.22-.13.44-.13.26 0 .43.13.17.14.36.4l1.77 2.88q-1.29 1.08-2.97 1.63t-3.48.55m9.84-25h5.95v24.62h-5.95zm6.77-7.18q0 .77-.32 1.44-.31.67-.82 1.18-.52.5-1.22.8-.69.3-1.48.3-.77 0-1.46-.3-.68-.3-1.18-.8-.51-.51-.81-1.18t-.3-1.44q0-.79.3-1.49.3-.69.81-1.2.5-.5 1.18-.8.69-.3 1.46-.3.79 0 1.48.3.7.3 1.22.8.51.51.82 1.2.32.7.32 1.49m16.12 6.79q2.74 0 4.98.89 2.25.89 3.84 2.52 1.6 1.63 2.46 3.98.87 2.36.87 5.26 0 2.93-.87 5.28-.86 2.35-2.46 4.01-1.59 1.65-3.84 2.54-2.24.89-4.98.89-2.76 0-5.01-.89-2.26-.89-3.85-2.54-1.6-1.66-2.48-4.01-.87-2.35-.87-5.28 0-2.9.87-5.26.88-2.35 2.48-3.98 1.59-1.63 3.85-2.52 2.25-.89 5.01-.89m0 20.81q3.08 0 4.55-2.06 1.48-2.07 1.48-6.05 0-3.99-1.48-6.07-1.47-2.09-4.55-2.09-3.12 0-4.62 2.1t-1.5 6.06 1.5 6.03q1.5 2.08 4.62 2.08m21.82-19.34.41 1.94q.74-.74 1.57-1.38t1.75-1.08q.93-.44 1.98-.7 1.06-.25 2.31-.25 2.01 0 3.57.69 1.56.68 2.61 1.92 1.04 1.23 1.58 2.95.54 1.71.54 3.78v15.67h-5.93v-15.67q0-2.26-1.03-3.49-1.03-1.24-3.14-1.24-1.54 0-2.88.7-1.35.69-2.55 1.89v17.81h-5.93v-24.62h3.63q1.15 0 1.51 1.08m56.42-6.03h-15.4v9.63h12.14v4.96h-12.14v9.82h15.4v5.16h-21.88v-34.7h21.88zm22.3 4.95h4.68l-9.77 24.62h-5.37l-9.77-24.62h4.89q.68 0 1.12.31t.59.79l4.75 13.15q.38 1.15.67 2.26.29 1.1.51 2.21.24-1.11.52-2.21.29-1.11.7-2.26l4.85-13.15q.17-.48.6-.79t1.03-.31m12.5 9.48h11.19q0-1.16-.33-2.18-.32-1.02-.97-1.78-.65-.77-1.64-1.22-1-.44-2.32-.44-2.57 0-4.04 1.46-1.48 1.47-1.89 4.16m15.12 3.57h-15.24q.15 1.9.68 3.28.52 1.38 1.39 2.28.86.9 2.05 1.34 1.19.45 2.63.45t2.48-.34q1.05-.34 1.83-.74.78-.41 1.36-.75.59-.33 1.14-.33.75 0 1.11.55l1.7 2.16q-.98 1.15-2.21 1.93-1.22.78-2.55 1.25t-2.71.66-2.68.19q-2.57 0-4.78-.85-2.2-.85-3.84-2.52-1.63-1.67-2.56-4.13-.94-2.46-.94-5.7 0-2.52.82-4.74.81-2.22 2.34-3.86 1.52-1.65 3.72-2.61 2.19-.96 4.95-.96 2.33 0 4.3.75 1.97.74 3.38 2.17 1.42 1.43 2.22 3.5.81 2.08.81 4.74 0 1.35-.29 1.81-.29.47-1.11.47m10.97-11.97.41 1.94q.74-.74 1.57-1.38t1.75-1.08q.93-.44 1.98-.7 1.06-.25 2.31-.25 2.01 0 3.57.69 1.56.68 2.61 1.92 1.04 1.23 1.58 2.95.54 1.71.54 3.78v15.67h-5.93v-15.67q0-2.26-1.03-3.49-1.03-1.24-3.14-1.24-1.54 0-2.88.7-1.35.69-2.55 1.89v17.81h-5.92v-24.62h3.62q1.15 0 1.51 1.08m30.15 23.92q-3.22 0-4.94-1.81-1.71-1.81-1.71-5v-13.75h-2.52q-.48 0-.82-.32-.33-.31-.33-.93v-2.35l3.96-.65 1.24-6.72q.12-.48.46-.75.34-.26.86-.26h3.08v7.75h6.57v4.23h-6.57v13.34q0 1.15.56 1.8t1.55.65q.55 0 .92-.13.37-.14.65-.28t.49-.28q.22-.13.43-.13.27 0 .44.13.16.14.36.4l1.77 2.88q-1.29 1.08-2.97 1.63t-3.48.55m-182.91 32.74-3.12-.55q.36-2.5 1.39-4.38 1.04-1.89 2.58-3.15 1.55-1.26 3.56-1.89 2-.64 4.3-.64 2.4 0 4.34.69 1.93.68 3.3 1.89 1.36 1.21 2.1 2.85.73 1.63.73 3.52 0 1.66-.37 2.92-.38 1.26-1.07 2.2-.7.93-1.73 1.58t-2.33 1.08q3.12.98 4.66 3 1.53 2.02 1.53 5.06 0 2.6-.96 4.59t-2.59 3.35q-1.63 1.35-3.78 2.05-2.15.69-4.55.69-2.61 0-4.56-.6-1.94-.6-3.38-1.77-1.44-1.18-2.45-2.88-1.01-1.71-1.73-3.94l2.62-1.08q1.03-.43 1.93-.23.9.21 1.31.98.43.84.95 1.65.51.82 1.23 1.45.72.64 1.7 1.04.97.39 2.31.39 1.51 0 2.64-.49t1.89-1.28q.75-.8 1.12-1.77.38-.97.38-1.95 0-1.25-.27-2.27-.26-1.02-1.1-1.74t-2.41-1.13q-1.58-.41-4.22-.41v-4.22q2.19-.03 3.63-.41t2.29-1.07q.85-.68 1.19-1.64.33-.96.33-2.11 0-2.45-1.36-3.72-1.37-1.28-3.65-1.28-1.06 0-1.95.3-.88.3-1.59.84t-1.19 1.26-.72 1.59q-.41 1.1-1.07 1.46t-1.86.17"/></svg>